<svg xmlns="http://www.w3.org/2000/svg" xmlns:xlink="http://www.w3.org/1999/xlink" viewBox="0 0 1200 800">
  <defs>
    <filter id="luminosity-noclip" x="560.41" y="-8592" width="85.76" height="32766" filterUnits="userSpaceOnUse" color-interpolation-filters="sRGB">
      <feFlood flood-color="#fff" result="bg"/>
      <feBlend in="SourceGraphic" in2="bg"/>
    </filter>
    <mask id="mask" x="560.41" y="-8592" width="85.76" height="32766" maskUnits="userSpaceOnUse">
      <g style="filter: url(#luminosity-noclip)"/>
    </mask>
    <linearGradient id="linear-gradient" x1="560.41" y1="526.96" x2="646.17" y2="526.96" gradientUnits="userSpaceOnUse">
      <stop offset="0" stop-color="#fff"/>
      <stop offset="1"/>
    </linearGradient>
    <linearGradient id="linear-gradient-2" x1="448.35" y1="773.85" x2="803.37" y2="92.14" gradientUnits="userSpaceOnUse">
      <stop offset="0" stop-color="#a737d5"/>
      <stop offset="1" stop-color="#ef497a"/>
    </linearGradient>
    <linearGradient id="linear-gradient-3" x1="451.07" y1="765.25" x2="796.43" y2="102.08" xlink:href="#linear-gradient-2"/>
    <linearGradient id="linear-gradient-4" x1="3050.89" y1="394.31" x2="3144.81" y2="306.02" gradientTransform="translate(-2371.96 445.17) rotate(-12.32)" gradientUnits="userSpaceOnUse">
      <stop offset="0" stop-color="#18459f"/>
      <stop offset="1" stop-color="#2874b5"/>
    </linearGradient>
    <linearGradient id="linear-gradient-5" x1="2868.28" y1="504.32" x2="2915.75" y2="391.47" xlink:href="#linear-gradient-4"/>
    <linearGradient id="linear-gradient-6" x1="679.27" y1="576.89" x2="961.09" y2="289.47" gradientTransform="translate(165.81 -80.85) rotate(6.71)" xlink:href="#linear-gradient-2"/>
    <linearGradient id="linear-gradient-7" x1="1033.47" y1="522.29" x2="849.47" y2="673.29" gradientUnits="userSpaceOnUse">
      <stop offset="0" stop-color="#53d8ff"/>
      <stop offset="1" stop-color="#3840f7"/>
    </linearGradient>
    <linearGradient id="linear-gradient-8" x1="1270.91" y1="535.26" x2="1102.12" y2="673.78" gradientTransform="matrix(-1, 0.07, 0.07, 1, 1426.06, -80.14)" xlink:href="#linear-gradient-7"/>
    <linearGradient id="linear-gradient-9" x1="571.5" y1="540.35" x2="386.84" y2="122.7" gradientTransform="matrix(1, -0.1, 0.1, 1, -114.49, 27.73)" xlink:href="#linear-gradient-2"/>
    <linearGradient id="linear-gradient-10" x1="309.92" y1="488.23" x2="487.85" y2="488.23" gradientTransform="translate(-166.04 39.97) rotate(-7.87)" xlink:href="#linear-gradient-7"/>
    <linearGradient id="linear-gradient-11" x1="141.32" y1="540.49" x2="359.88" y2="540.49" xlink:href="#linear-gradient-2"/>
    <linearGradient id="linear-gradient-12" x1="604.68" y1="948.41" x2="597.88" y2="319.95" gradientUnits="userSpaceOnUse">
      <stop offset="0" stop-color="#cb236d"/>
      <stop offset="1" stop-color="#4c246d"/>
    </linearGradient>
    <linearGradient id="linear-gradient-13" x1="495.98" y1="367.93" x2="492.96" y2="294.58" xlink:href="#linear-gradient-12"/>
    <linearGradient id="linear-gradient-14" x1="492.15" y1="257.8" x2="507.28" y2="468.04" xlink:href="#linear-gradient-12"/>
    <linearGradient id="linear-gradient-15" x1="700.36" y1="359.51" x2="697.33" y2="286.15" xlink:href="#linear-gradient-12"/>
    <linearGradient id="linear-gradient-16" x1="695.98" y1="243.13" x2="711.11" y2="453.37" xlink:href="#linear-gradient-12"/>
    <linearGradient id="linear-gradient-17" x1="612.03" y1="140.75" x2="591.61" y2="290.49" xlink:href="#linear-gradient-12"/>
    <linearGradient id="linear-gradient-18" x1="618.19" y1="257.37" x2="543.31" y2="956.16" xlink:href="#linear-gradient-12"/>
    <linearGradient id="linear-gradient-19" x1="623.62" y1="343.61" x2="594.12" y2="577.3" xlink:href="#linear-gradient-2"/>
    <filter id="luminosity-noclip-2" x="560.41" y="490.1" width="85.76" height="73.71" filterUnits="userSpaceOnUse" color-interpolation-filters="sRGB">
      <feFlood flood-color="#fff" result="bg"/>
      <feBlend in="SourceGraphic" in2="bg"/>
    </filter>
    <mask id="mask-2" x="560.41" y="490.1" width="85.76" height="73.71" maskUnits="userSpaceOnUse">
      <g style="mask: url(#mask);filter: url(#luminosity-noclip-2)">
        <path d="M629,563.81h-49.9a12.9,12.9,0,0,1-12.82-11.32l-5.76-48a12.87,12.87,0,0,1,12.82-14.38h59.94a12.88,12.88,0,0,1,12.86,14l-4.28,48A12.89,12.89,0,0,1,629,563.81Z" style="mix-blend-mode: multiply;fill: url(#linear-gradient)"/>
      </g>
    </mask>
    <linearGradient id="linear-gradient-20" x1="560.41" y1="526.96" x2="646.17" y2="526.96" gradientUnits="userSpaceOnUse">
      <stop offset="0" stop-color="#fff"/>
      <stop offset="1" stop-color="#fff"/>
    </linearGradient>
    <linearGradient id="linear-gradient-21" x1="572.58" y1="546.49" x2="691.49" y2="546.49" gradientUnits="userSpaceOnUse">
      <stop offset="0" stop-color="#f9b776"/>
      <stop offset="1" stop-color="#f47960"/>
    </linearGradient>
    <linearGradient id="linear-gradient-22" x1="732.91" y1="453.12" x2="739.9" y2="631.72" xlink:href="#linear-gradient-7"/>
    <linearGradient id="linear-gradient-23" x1="488.49" y1="440.03" x2="426.2" y2="503.59" gradientUnits="userSpaceOnUse">
      <stop offset="0" stop-color="#fdf53f"/>
      <stop offset="1" stop-color="#d93c65"/>
    </linearGradient>
    <linearGradient id="linear-gradient-24" x1="646.37" y1="432.56" x2="459.82" y2="525.36" xlink:href="#linear-gradient-21"/>
    <linearGradient id="linear-gradient-25" x1="643.64" y1="409.29" x2="616.13" y2="438.02" xlink:href="#linear-gradient-21"/>
    <linearGradient id="linear-gradient-26" x1="647.26" y1="431.46" x2="460.71" y2="524.26" xlink:href="#linear-gradient-21"/>
    <linearGradient id="linear-gradient-27" x1="500.82" y1="394.58" x2="169.06" y2="832.16" xlink:href="#linear-gradient-23"/>
    <linearGradient id="linear-gradient-28" x1="405.46" y1="461.54" x2="430.25" y2="393.85" xlink:href="#linear-gradient-21"/>
    <linearGradient id="linear-gradient-29" x1="525.17" y1="549.15" x2="438.73" y2="612.71" xlink:href="#linear-gradient-21"/>
    <linearGradient id="linear-gradient-30" x1="460.53" y1="365.34" x2="387.85" y2="420.95" xlink:href="#linear-gradient-21"/>
    <linearGradient id="linear-gradient-31" x1="409.37" y1="321.3" x2="477.06" y2="408.46" gradientUnits="userSpaceOnUse">
      <stop offset="0" stop-color="#2b3582"/>
      <stop offset="1" stop-color="#150e42"/>
    </linearGradient>
    <linearGradient id="linear-gradient-32" x1="451.52" y1="353.55" x2="378.83" y2="409.17" xlink:href="#linear-gradient-21"/>
    <linearGradient id="linear-gradient-33" x1="570.43" y1="576.55" x2="599.73" y2="576.55" xlink:href="#linear-gradient-21"/>
    <linearGradient id="linear-gradient-34" x1="787.75" y1="517.64" x2="1051.39" y2="657.99" xlink:href="#linear-gradient-7"/>
    <linearGradient id="linear-gradient-35" x1="838.64" y1="427.55" x2="819.57" y2="370.35" xlink:href="#linear-gradient-21"/>
    <linearGradient id="linear-gradient-36" x1="834.55" y1="594.43" x2="1035.08" y2="594.43" gradientUnits="userSpaceOnUse">
      <stop offset="0" stop-color="#9cfffb"/>
      <stop offset="1" stop-color="#9bfffa"/>
    </linearGradient>
    <linearGradient id="linear-gradient-37" x1="843.91" y1="592.88" x2="1035.27" y2="592.88" xlink:href="#linear-gradient-36"/>
    <linearGradient id="linear-gradient-38" x1="942.6" y1="573.87" x2="983.28" y2="756.29" xlink:href="#linear-gradient-23"/>
    <linearGradient id="linear-gradient-39" x1="821.84" y1="454.04" x2="1086.89" y2="595.14" xlink:href="#linear-gradient-7"/>
    <linearGradient id="linear-gradient-40" x1="868.23" y1="511.96" x2="949.67" y2="555.31" xlink:href="#linear-gradient-7"/>
    <linearGradient id="linear-gradient-41" x1="954.41" y1="594.18" x2="892.44" y2="713.35" xlink:href="#linear-gradient-21"/>
    <linearGradient id="linear-gradient-42" x1="2794.08" y1="3548.98" x2="2725.54" y2="3639.65" gradientTransform="matrix(-0.69, -0.73, -0.73, 0.69, 5322.71, -52.72)" xlink:href="#linear-gradient-21"/>
    <linearGradient id="linear-gradient-43" x1="2741.73" y1="3570.75" x2="2823.6" y2="3570.75" gradientTransform="matrix(-0.69, -0.73, -0.73, 0.69, 5322.71, -52.72)" xlink:href="#linear-gradient-31"/>
    <linearGradient id="linear-gradient-44" x1="2693.7" y1="3620.78" x2="2748.67" y2="3564.38" gradientTransform="matrix(-0.69, -0.73, -0.73, 0.69, 5322.71, -52.72)" xlink:href="#linear-gradient-21"/>
    <linearGradient id="linear-gradient-45" x1="11732.48" y1="-4057.47" x2="11656.45" y2="-4103.54" gradientTransform="matrix(1, 0.07, -0.25, 0.89, -11726.6, 3014.27)" xlink:href="#linear-gradient-7"/>
    <linearGradient id="linear-gradient-46" x1="11690.28" y1="-4074.5" x2="11603.29" y2="-4166.49" gradientTransform="matrix(1, 0.07, -0.25, 0.89, -11726.6, 3014.27)" xlink:href="#linear-gradient-7"/>
    <linearGradient id="linear-gradient-47" x1="11726.93" y1="-4058.23" x2="11655.91" y2="-4101.27" gradientTransform="matrix(1, 0.07, -0.25, 0.89, -11726.6, 3014.27)" xlink:href="#linear-gradient-7"/>
    <linearGradient id="linear-gradient-48" x1="-14792.93" y1="-3629.88" x2="-14760.48" y2="-3639.28" gradientTransform="matrix(-1, -0.07, -0.07, 1, -14085.01, 2751.93)" xlink:href="#linear-gradient-7"/>
  </defs>
  <title>Asset 1</title>
  <g id="Layer_2" data-name="Layer 2">
    <g id="illustration">
      <g>
        <g style="opacity: 0.7000000000000001">
          <path d="M1077.23,501.86c-16-17.44-39.84-27.69-57.21-44.06-28-26.44-35.86-65.54-34.74-102.06s9.81-72.7,9.18-109.23S982,171.08,950.33,148.12c-34-24.69-83.55-25.14-124.84-12.2s-76.69,37.26-112.78,59.46C693.82,207,671.33,218.62,649.31,213c-21.72-5.53-34-25.43-46-42.59-14.07-20-32.47-39.11-57.47-46.59-49.34-14.76-55.52,2.14-57.88,15.54-3.53,20.09-8.82,34.62-26.72,41S422.84,184,404.8,177.9,370.19,162.64,352.38,156c-28.47-10.59-60.85-14.4-90.33-6.35s-55.27,29.14-62.56,56.05c-12.19,45,27.12,93.55,8.78,136.82C195.63,372.4,160.15,388.3,136.33,412c-45.9,45.7-42.91,120.28-4.69,171.37S236.06,664.14,303.26,676s136.44,8.14,204.85,5.24c107.51-4.56,215.19-6.88,322.77-4,44.49,1.21,89.46,3.28,133.12-4.45s86.75-26.58,112.33-59.31S1105.58,532.71,1077.23,501.86Z" style="opacity: 0.30000000000000004;fill: url(#linear-gradient-2)"/>
          <path d="M1062.85,500.66c-15.59-17-38.76-26.93-55.66-42.86-27.28-25.72-34.88-63.75-33.79-99.28s9.54-70.73,8.93-106.26-12.17-73.38-42.93-95.72c-33.1-24-81.28-24.45-121.45-11.86s-74.6,36.24-109.71,57.83c-18.38,11.3-40.25,22.62-61.68,17.16-21.12-5.38-33-24.74-44.76-41.43-13.69-19.49-31.59-38.06-55.92-45.33-48-14.36-54,2.08-56.3,15.12-3.44,19.54-8.58,33.68-26,39.92s-37.34,3.49-54.89-2.44-33.67-14.84-51-21.29c-27.69-10.29-59.2-14-87.87-6.17S216.07,186.4,209,212.57c-11.86,43.77,26.38,91,8.54,133.11-12.3,29-46.81,44.51-70,67.57-44.66,44.45-41.75,117-4.57,166.7s101.59,78.58,167,90.15S442.65,678,509.2,675.2c104.59-4.44,209.35-6.69,314-3.86,43.28,1.18,87,3.19,129.5-4.33s84.38-25.85,109.27-57.7S1090.42,530.67,1062.85,500.66Z" style="opacity: 0.2;fill: url(#linear-gradient-3)"/>
        </g>
        <g>
          <g>
            <g style="opacity: 0.64">
              <path d="M606.9,234.07a1.51,1.51,0,0,1-1.32-.78c-.64-1.18-1.27-2.39-1.87-3.61a1.5,1.5,0,1,1,2.7-1.32c.57,1.17,1.18,2.35,1.81,3.49a1.5,1.5,0,0,1-.6,2A1.46,1.46,0,0,1,606.9,234.07Z" style="fill: #fff"/>
              <path d="M600.29,218.81a1.5,1.5,0,0,1-1.42-1c-.82-2.49-1.54-5.05-2.15-7.61a1.5,1.5,0,1,1,2.92-.69c.59,2.48,1.29,5,2.08,7.37a1.49,1.49,0,0,1-1.43,2Zm-4.17-20a1.5,1.5,0,0,1-1.49-1.35c-.25-2.62-.39-5.28-.42-7.9a1.51,1.51,0,0,1,1.49-1.52h0a1.49,1.49,0,0,1,1.5,1.49c0,2.53.17,5.11.41,7.64a1.5,1.5,0,0,1-1.35,1.64Zm.34-20.38h-.19a1.5,1.5,0,0,1-1.3-1.68c.34-2.61.79-5.23,1.35-7.8a1.5,1.5,0,0,1,2.93.64c-.54,2.49-1,5-1.3,7.54A1.51,1.51,0,0,1,596.46,178.47Zm4.87-19.8a1.37,1.37,0,0,1-.52-.1,1.49,1.49,0,0,1-.89-1.92c.91-2.47,1.94-4.92,3.06-7.3a1.5,1.5,0,1,1,2.71,1.28c-1.08,2.3-2.07,4.67-3,7.06A1.52,1.52,0,0,1,601.33,158.67Zm9.15-18.22a1.48,1.48,0,0,1-.82-.25,1.5,1.5,0,0,1-.44-2.07c1.44-2.2,3-4.37,4.59-6.44a1.5,1.5,0,0,1,2.37,1.84c-1.56,2-3.06,4.1-4.44,6.23A1.49,1.49,0,0,1,610.48,140.45Zm12.95-15.75a1.46,1.46,0,0,1-1.08-.46,1.5,1.5,0,0,1,0-2.12c1.88-1.83,3.87-3.6,5.9-5.27a1.5,1.5,0,0,1,1.9,2.33c-2,1.61-3.89,3.32-5.71,5.09A1.47,1.47,0,0,1,623.43,124.7Zm16.1-12.49a1.5,1.5,0,0,1-.78-2.78c2.24-1.37,4.57-2.66,6.92-3.83a1.5,1.5,0,0,1,1.33,2.69c-2.27,1.13-4.52,2.37-6.69,3.7A1.51,1.51,0,0,1,639.53,112.21ZM658,103.62a1.5,1.5,0,0,1-.47-2.92c2.48-.84,5-1.57,7.6-2.19a1.5,1.5,0,0,1,.7,2.92c-2.47.6-5,1.31-7.35,2.11A1.61,1.61,0,0,1,658,103.62Zm48-2.77a1.63,1.63,0,0,1-.31,0c-2.49-.53-5-.95-7.55-1.26a1.5,1.5,0,0,1-1.3-1.68,1.49,1.49,0,0,1,1.67-1.3c2.6.32,5.23.76,7.8,1.31a1.5,1.5,0,0,1-.31,3Zm-28.07-1.5a1.5,1.5,0,0,1-.15-3c2.62-.26,5.28-.42,7.9-.46a1.5,1.5,0,0,1,0,3c-2.54,0-5.11.19-7.64.45Z" style="fill: #fff"/>
              <path d="M721.94,105.8a1.46,1.46,0,0,1-.57-.12c-1.21-.49-2.44-1-3.67-1.42a1.5,1.5,0,0,1,1-2.82c1.26.46,2.54,1,3.79,1.47a1.5,1.5,0,0,1-.58,2.89Z" style="fill: #fff"/>
            </g>
            <g style="opacity: 0.64">
              <path d="M772.17,157a1.5,1.5,0,0,1-1.4-1c-.47-1.22-1-2.44-1.5-3.63a1.5,1.5,0,1,1,2.74-1.21c.54,1.23,1.07,2.49,1.56,3.76a1.5,1.5,0,0,1-.86,1.94A1.44,1.44,0,0,1,772.17,157Z" style="fill: #fff"/>
              <path d="M687,281.58q-1.69,0-3.36-.06a1.5,1.5,0,1,1,.11-3c2.49.09,5,.07,7.53,0a1.5,1.5,0,0,1,.14,3C689.9,281.55,688.42,281.58,687,281.58Zm-15.67-1.36a1.1,1.1,0,0,1-.26,0c-2.55-.45-5.1-1-7.61-1.67a1.5,1.5,0,0,1,.77-2.9c2.42.64,4.89,1.18,7.35,1.62a1.5,1.5,0,0,1-.25,3Zm32.37-.16a1.5,1.5,0,0,1-.27-3c2.47-.45,4.94-1,7.34-1.67a1.5,1.5,0,0,1,.79,2.9c-2.49.67-5,1.25-7.59,1.72A1.24,1.24,0,0,1,703.65,280.06Zm19.21-5.77a1.5,1.5,0,0,1-.59-2.88c2.3-1,4.59-2.07,6.8-3.24a1.51,1.51,0,0,1,2,.63,1.5,1.5,0,0,1-.63,2c-2.28,1.2-4.64,2.33-7,3.34A1.52,1.52,0,0,1,722.86,274.29Zm17.47-9.84a1.49,1.49,0,0,1-.87-2.71c2-1.46,4-3,5.92-4.65a1.5,1.5,0,0,1,2,2.28c-2,1.68-4,3.29-6.12,4.8A1.51,1.51,0,0,1,740.33,264.45ZM755.23,251a1.49,1.49,0,0,1-1-.38,1.51,1.51,0,0,1-.12-2.12c1.67-1.87,3.27-3.83,4.77-5.82a1.5,1.5,0,0,1,2.4,1.8c-1.55,2.06-3.21,4.09-4.93,6A1.5,1.5,0,0,1,755.23,251Zm11.63-16.34a1.49,1.49,0,0,1-.73-.2,1.5,1.5,0,0,1-.58-2c1.22-2.18,2.36-4.44,3.39-6.72a1.5,1.5,0,1,1,2.73,1.24c-1.06,2.35-2.24,4.69-3.5,6.95A1.49,1.49,0,0,1,766.86,234.69Zm7.8-18.49a1.59,1.59,0,0,1-.43-.06,1.51,1.51,0,0,1-1-1.87c.71-2.4,1.33-4.86,1.84-7.3a1.5,1.5,0,1,1,2.93.61c-.52,2.53-1.16,5.07-1.9,7.54A1.49,1.49,0,0,1,774.66,216.2Zm3.55-19.75h-.1a1.5,1.5,0,0,1-1.4-1.59c.14-2,.2-4,.2-6,0-.51,0-1,0-1.53a1.5,1.5,0,1,1,3,0c0,.53,0,1,0,1.58,0,2.06-.07,4.14-.2,6.2A1.51,1.51,0,0,1,778.21,196.45Zm-.86-20a1.49,1.49,0,0,1-1.48-1.27c-.38-2.48-.87-5-1.45-7.39a1.5,1.5,0,1,1,2.92-.7c.6,2.51,1.1,5.08,1.49,7.64a1.5,1.5,0,0,1-1.25,1.71Z" style="fill: #fff"/>
              <path d="M652,274.58a1.42,1.42,0,0,1-.57-.12c-1.25-.52-2.5-1.07-3.72-1.65A1.5,1.5,0,1,1,649,270.1c1.18.55,2.38,1.09,3.59,1.59a1.5,1.5,0,0,1-.58,2.89Z" style="fill: #fff"/>
            </g>
            <g>
              <path d="M649.52,248a1.1,1.1,0,0,0,1.27.06l11.26-7.17a58.31,58.31,0,0,0,18.1,5.19l5.75,12a1.1,1.1,0,0,0,1.11.61l15.91-1.82a1.1,1.1,0,0,0,.94-.85l2.89-13a58.09,58.09,0,0,0,16.46-9.15l12.58,4.45A1.1,1.1,0,0,0,737,238l10-12.53a1.1,1.1,0,0,0,.06-1.27l-7.17-11.25a58.2,58.2,0,0,0,5.19-18.1l12-5.76a1.08,1.08,0,0,0,.61-1.11l-1.82-15.9a1.08,1.08,0,0,0-.85-.95l-13-2.88a58,58,0,0,0-9.14-16.46l4.44-12.59A1.11,1.11,0,0,0,737,138L724.41,128a1.08,1.08,0,0,0-1.27-.07l-11.25,7.17a58,58,0,0,0-18.1-5.18l-5.76-12a1.08,1.08,0,0,0-1.11-.62L671,119.11a1.11,1.11,0,0,0-.95.85l-2.88,13a58.2,58.2,0,0,0-16.46,9.15l-12.58-4.44a1.09,1.09,0,0,0-1.23.35L627,150.57a1.1,1.1,0,0,0-.07,1.27l7.17,11.25a58.17,58.17,0,0,0-5.18,18.11l-12,5.75a1.1,1.1,0,0,0-.62,1.11l1.82,15.9a1.11,1.11,0,0,0,.86.95l13,2.88a58.06,58.06,0,0,0,9.15,16.46l-4.44,12.59a1.08,1.08,0,0,0,.35,1.22Z" style="fill: url(#linear-gradient-4)"/>
              <path d="M687,205.23a17.22,17.22,0,0,1-15.71-24.3,17.22,17.22,0,0,1,31.79,1,17.24,17.24,0,0,1-10,22.19h0A17.2,17.2,0,0,1,687,205.23Zm5-3.92h0Zm-5-24.51a11.25,11.25,0,1,0,4.61,1A11.15,11.15,0,0,0,687,176.8Z" style="fill: #fff;opacity: 0.56"/>
              <path d="M687.11,227.35h0c-1,0-2,0-3-.11l-.86-.08a1,1,0,0,1-.9-1v-.1a1,1,0,0,1,1.1-.9,37.62,37.62,0,0,0,41.29-35.34q.06-1,.06-2.07a37.62,37.62,0,0,0-41.9-37.4,37.67,37.67,0,0,0-33.34,37.34,39.18,39.18,0,0,0,.24,4.31,37.58,37.58,0,0,0,7.5,18.59,1,1,0,0,1,.2.61,1,1,0,0,1-1.79.6,39.51,39.51,0,0,1-7.9-19.57,40.89,40.89,0,0,1-.25-4.54,39.62,39.62,0,0,1,79-4.48,41.24,41.24,0,0,1,.26,4.55,39.67,39.67,0,0,1-35.11,39.32h0A38.73,38.73,0,0,1,687.11,227.35Z" style="fill: #fff;opacity: 0.56"/>
            </g>
          </g>
          <g>
            <g style="opacity: 0.64">
              <path d="M510.18,259.14a1,1,0,0,1-.88-.52c-.4-.74-.79-1.5-1.16-2.26a1,1,0,0,1,.46-1.34,1,1,0,0,1,1.34.46c.35.74.73,1.47,1.12,2.18a1,1,0,0,1-.4,1.36A1,1,0,0,1,510.18,259.14Z" style="fill: #fff"/>
              <path d="M507.13,252.46a1,1,0,0,1-.94-.65c-.57-1.54-1.08-3.13-1.5-4.71a1,1,0,1,1,1.93-.52c.41,1.53.9,3,1.45,4.53a1,1,0,0,1-.59,1.29A1.07,1.07,0,0,1,507.13,252.46Zm-2.51-9.36a1,1,0,0,1-1-.83l-.18-1.14c-.18-1.25-.32-2.52-.42-3.77a1,1,0,0,1,2-.15c.09,1.2.22,2.43.4,3.63.05.37.11.73.17,1.09a1,1,0,0,1-.82,1.16Zm-.71-9.66h0a1,1,0,0,1-1-1c0-1.65.14-3.31.33-4.94a1,1,0,0,1,2,.23c-.18,1.57-.29,3.17-.32,4.75A1,1,0,0,1,503.91,233.44Zm1.11-9.63-.21,0a1,1,0,0,1-.77-1.19c.35-1.6.77-3.21,1.27-4.78a1,1,0,1,1,1.9.6c-.47,1.51-.88,3.06-1.21,4.6A1,1,0,0,1,505,223.81Zm2.92-9.24a.88.88,0,0,1-.39-.08,1,1,0,0,1-.53-1.31c.64-1.51,1.36-3,2.14-4.46a1,1,0,0,1,1.76.95c-.76,1.4-1.45,2.84-2.06,4.29A1,1,0,0,1,507.94,214.57Zm4.6-8.53a1,1,0,0,1-.56-.16,1,1,0,0,1-.27-1.39c.91-1.37,1.9-2.71,2.93-4a1,1,0,0,1,1.41-.14,1,1,0,0,1,.14,1.4c-1,1.23-1.94,2.51-2.82,3.83A1,1,0,0,1,512.54,206Zm6.11-7.51a1,1,0,0,1-.7-.29,1,1,0,0,1,0-1.41c1.15-1.17,2.37-2.3,3.63-3.36a1,1,0,1,1,1.29,1.53c-1.21,1-2.39,2.1-3.49,3.23A1,1,0,0,1,518.65,198.53Zm7.42-6.24a1,1,0,0,1-.83-.43,1,1,0,0,1,.26-1.39c1.35-.93,2.76-1.81,4.19-2.61a1,1,0,1,1,1,1.74c-1.38.77-2.74,1.62-4,2.52A1,1,0,0,1,526.07,192.29Zm8.45-4.72a1,1,0,0,1-.4-1.92c1.5-.66,3-1.25,4.62-1.77a1,1,0,0,1,.62,1.9c-1.5.5-3,1.07-4.44,1.71A1.1,1.1,0,0,1,534.52,187.57Zm33.24-2.79a1,1,0,0,1-.25,0c-1.53-.39-3.1-.71-4.66-.95a1,1,0,0,1-.84-1.14,1,1,0,0,1,1.14-.83c1.63.25,3.26.58,4.85,1a1,1,0,0,1-.24,2Zm-24-.25a1,1,0,0,1-.22-2c1.34-.31,2.72-.57,4.09-.77l.77-.11a1,1,0,1,1,.26,2l-.74.11c-1.32.19-2.64.44-3.94.74Zm14.46-1.22h-.06c-1.57-.09-3.16-.11-4.76-.05a1,1,0,0,1-.07-2c1.66-.06,3.31,0,4.94.05a1,1,0,0,1-.05,2Z" style="fill: #fff"/>
              <path d="M574.78,187.11a1.06,1.06,0,0,1-.38-.07c-.75-.32-1.51-.61-2.28-.89a1,1,0,1,1,.67-1.88c.8.29,1.59.59,2.38.92a1,1,0,0,1-.39,1.92Z" style="fill: #fff"/>
            </g>
            <g style="opacity: 0.64">
              <path d="M603.08,216.11a1,1,0,0,1-.93-.64c-.3-.77-.61-1.52-.94-2.27a1,1,0,0,1,1.83-.8c.35.77.67,1.56,1,2.35a1,1,0,0,1-.58,1.29A.92.92,0,0,1,603.08,216.11Z" style="fill: #fff"/>
              <path d="M555.13,285.82c-1.45,0-2.92-.06-4.37-.18a1,1,0,1,1,.17-2,50.62,50.62,0,0,0,5.08.17,1,1,0,0,1,0,2Zm6.07-.36a1,1,0,0,1-1-.88,1,1,0,0,1,.88-1.11c.47-.05.95-.12,1.42-.19,1.21-.17,2.41-.4,3.59-.66a1,1,0,0,1,1.19.76,1,1,0,0,1-.76,1.2c-1.22.27-2.48.5-3.73.68l-1.48.2ZM545.71,285l-.19,0c-1.72-.33-3.45-.74-5.14-1.24a1,1,0,0,1-.67-1.25,1,1,0,0,1,1.24-.67,49.31,49.31,0,0,0,4.94,1.19,1,1,0,0,1-.18,2Zm25.61-1.72a1,1,0,0,1-.31-2,50.47,50.47,0,0,0,4.74-1.84,1,1,0,0,1,.81,1.83c-1.6.71-3.26,1.36-4.93,1.91A1.12,1.12,0,0,1,571.32,283.23Zm9.46-4.23a1,1,0,0,1-.5-1.87c1.46-.84,2.9-1.77,4.27-2.75a1,1,0,1,1,1.16,1.62,50.21,50.21,0,0,1-4.44,2.87A1,1,0,0,1,580.78,279Zm8.4-6.05a1,1,0,0,1-.66-1.75,50.62,50.62,0,0,0,3.63-3.55,1,1,0,1,1,1.47,1.35,50.76,50.76,0,0,1-3.78,3.7A1,1,0,0,1,589.18,273Zm7-7.61a1,1,0,0,1-.6-.2,1,1,0,0,1-.2-1.4,48,48,0,0,0,2.85-4.22,1,1,0,0,1,1.71,1,51.71,51.71,0,0,1-3,4.38A1,1,0,0,1,596.2,265.34Zm5.36-8.86a1.12,1.12,0,0,1-.43-.1,1,1,0,0,1-.47-1.33,50.49,50.49,0,0,0,1.94-4.7,1,1,0,1,1,1.89.67c-.59,1.65-1.27,3.29-2,4.88A1,1,0,0,1,601.56,256.48Zm3.48-9.77-.24,0a1,1,0,0,1-.74-1.21,50.09,50.09,0,0,0,1-5,1,1,0,1,1,2,.28c-.24,1.74-.58,3.49-1,5.19A1,1,0,0,1,605,246.71Zm1.42-10.26h0a1,1,0,0,1-1-1c0-.6,0-1.21,0-1.82,0-1.08,0-2.18-.11-3.26a1,1,0,0,1,.93-1.06,1,1,0,0,1,1.07.93c.07,1.13.11,2.27.11,3.39,0,.63,0,1.27,0,1.9A1,1,0,0,1,606.46,236.45Zm-.67-10.34a1,1,0,0,1-1-.83c-.28-1.67-.64-3.35-1.08-5a1,1,0,0,1,.7-1.23,1,1,0,0,1,1.23.7c.45,1.69.83,3.43,1.12,5.17a1,1,0,0,1-.82,1.15Z" style="fill: #fff"/>
              <path d="M535.72,282a1,1,0,0,1-.38-.08c-.79-.32-1.56-.67-2.33-1a1,1,0,0,1,.85-1.81c.74.35,1.49.68,2.24,1a1,1,0,0,1,.55,1.31A1,1,0,0,1,535.72,282Z" style="fill: #fff"/>
            </g>
            <g>
              <path d="M534.12,266.82a.62.62,0,0,0,.71,0l6.32-4a32.83,32.83,0,0,0,10.16,2.91l3.24,6.75a.6.6,0,0,0,.62.35l8.93-1a.63.63,0,0,0,.53-.48l1.62-7.31a32.73,32.73,0,0,0,9.24-5.14l7.07,2.5a.65.65,0,0,0,.69-.2l5.59-7a.6.6,0,0,0,0-.71l-4-6.32A32.89,32.89,0,0,0,587.76,237l6.75-3.23a.6.6,0,0,0,.35-.62l-1-8.93a.61.61,0,0,0-.48-.53L586.05,222a32.92,32.92,0,0,0-5.14-9.25l2.5-7.06a.64.64,0,0,0-.2-.69l-7-5.59a.62.62,0,0,0-.71,0l-6.32,4A32.54,32.54,0,0,0,559,200.51l-3.23-6.76a.61.61,0,0,0-.62-.34l-8.93,1a.61.61,0,0,0-.53.48L544,202.22a32.64,32.64,0,0,0-9.25,5.13l-7.06-2.49a.61.61,0,0,0-.69.2l-5.59,7a.63.63,0,0,0,0,.72l4,6.32a32.83,32.83,0,0,0-2.91,10.16l-6.76,3.23a.63.63,0,0,0-.34.63l1,8.93a.62.62,0,0,0,.48.53l7.31,1.62a32.45,32.45,0,0,0,5.13,9.24l-2.49,7.07a.61.61,0,0,0,.2.69Z" style="fill: url(#linear-gradient-5)"/>
              <path d="M555.15,242.1A9,9,0,0,1,552,224.72a9,9,0,0,1,6.35,16.8h0A8.79,8.79,0,0,1,555.15,242.1Zm2.82-1.51h0Zm-2.82-14.45a7,7,0,1,0,2.46,13.51h0a7,7,0,0,0,.41-12.89A7.06,7.06,0,0,0,555.15,226.14Z" style="fill: #fff;opacity: 0.56"/>
              <path d="M555.22,255.65h-.82c-.41,0-.83,0-1.24-.08H553a1,1,0,0,1-.9-1,.34.34,0,0,1,0-.1,1,1,0,0,1,1.09-.9,20.88,20.88,0,0,0,4.4,0h0a20.71,20.71,0,0,0,18.29-21.91c0-.33,0-.67-.09-1A20.69,20.69,0,0,0,534.56,233a21.21,21.21,0,0,0,.14,2.37,20.61,20.61,0,0,0,4.12,10.22,1,1,0,0,1,.21.6,1,1,0,0,1-1.8.61,22.64,22.64,0,0,1-4.52-11.2,23.1,23.1,0,0,1-.15-2.61,22.69,22.69,0,1,1,25.27,22.56h-.07A23.87,23.87,0,0,1,555.22,255.65Z" style="fill: #fff;opacity: 0.56"/>
            </g>
          </g>
        </g>
        <g>
          <path d="M830.34,644.37a1.5,1.5,0,0,1-2.9-.78c8.89-36.29,6.68-20.51,14.12-51.43,18.61-77.29-.87-114.27-2.31-155.17s30-88.79,96.23-64.33c54.08,20,96.74,34.29,117.58,33.73a5,5,0,0,1,4.23,7.68c-14.52,22-52.72,71.17-103.54,69.45-65.42-2.2-64.24-20-79.91-4.45s-17,32.56-19.62,64.33C851.92,570.77,851.75,572.83,830.34,644.37Z" style="fill: url(#linear-gradient-6)"/>
          <path d="M851.52,516.91a130.24,130.24,0,0,1-3.06-15.3,137.91,137.91,0,0,1-1.34-15.49,98.44,98.44,0,0,1,3.75-31,65.27,65.27,0,0,1,6.39-14.47,53.65,53.65,0,0,1,10.07-12.31,59.4,59.4,0,0,1,13.19-8.8c2.34-1.1,4.65-2.25,7.06-3.23s4.8-1.95,7.22-2.86a117.63,117.63,0,0,1,15-4.25,94.89,94.89,0,0,1,15.5-1.82,99.63,99.63,0,0,1,15.55.69c5.14.62,10.21,1.57,15.23,2.65,10,2.19,19.86,4.79,29.86,6.49a131.54,131.54,0,0,0,30.25,1.87h0a.87.87,0,0,1,.12,1.73,133.71,133.71,0,0,1-30.77-1.07c-10.19-1.46-20.15-3.94-30.11-5.89s-20-3.28-30-2.78a92.75,92.75,0,0,0-14.85,2,112,112,0,0,0-14.39,4.28c-2.33.92-4.68,1.81-7,2.87s-4.56,2.12-6.82,3.22a55.44,55.44,0,0,0-12.15,8.21c-7.24,6.59-12.2,15.41-15,24.85A94.31,94.31,0,0,0,851.62,486a145.37,145.37,0,0,0,1.15,15,123.79,123.79,0,0,0,2.76,14.75l0,.07a2.08,2.08,0,0,1-4,1.06Z" style="fill: #6030dc"/>
        </g>
        <g>
          <path d="M862.17,650s62.79,37.77,97.41-2.1c32.17-37.06,29.42-74.77,65.11-85.31a5.7,5.7,0,0,0,2.38-9.47c-12-12.08-41.14-32.56-88.09-13.59C875.28,565.3,862.17,650,862.17,650Z" style="fill: url(#linear-gradient-7)"/>
          <path d="M866.69,646.62a28.55,28.55,0,0,0,5.14-1.37,48,48,0,0,0,5-2.07,75.72,75.72,0,0,0,9.36-5.4A121.57,121.57,0,0,0,902.89,624c10.39-10.13,19.31-21.67,27.79-33.59,4.27-5.94,8.47-12,13-17.79s9.63-11.43,15.85-15.75a40.73,40.73,0,0,1,10.06-5.16,39.94,39.94,0,0,1,11.06-2.11,68,68,0,0,1,22,3,.49.49,0,0,1,.33.6.49.49,0,0,1-.57.34h0c-7.11-1.55-14.4-2.6-21.56-1.91a41.69,41.69,0,0,0-10.4,2.37,38.73,38.73,0,0,0-9.32,5.09c-5.75,4.22-10.45,9.78-14.84,15.55s-8.48,11.86-12.72,17.86-8.59,12-13.21,17.72c-1.18,1.43-2.4,2.82-3.59,4.23s-2.39,2.83-3.68,4.17l-3.8,4-4,3.86a107.25,107.25,0,0,1-17.64,13.58,64.77,64.77,0,0,1-10,5,36.51,36.51,0,0,1-10.89,2.77.62.62,0,0,1-.14-1.23Z" style="fill: #fff;opacity: 0.5"/>
        </g>
        <g>
          <g>
            <path d="M357,643.33s-55.22,38.31-89.29,3.88c-31.66-32-31.39-66.69-64.69-74.21a5.23,5.23,0,0,1-2.75-8.53c10.32-11.78,35.72-32.26,79.83-17.69C340,566.54,357,643.33,357,643.33Z" style="fill: url(#linear-gradient-8)"/>
            <path d="M352.71,641.68a33.64,33.64,0,0,1-10.16-1.87,57.8,57.8,0,0,1-9.47-4,97.56,97.56,0,0,1-17-11.36l-3.91-3.3-3.73-3.49c-1.26-1.14-2.43-2.37-3.61-3.59s-2.39-2.43-3.55-3.66c-4.57-5-8.92-10.2-13.15-15.45s-8.32-10.58-12.7-15.59-9-9.83-14.47-13.34a35.12,35.12,0,0,0-8.8-4.11,38.53,38.53,0,0,0-9.63-1.56c-6.59-.22-13.2,1.17-19.62,3h0a.48.48,0,0,1-.29-.92,62.37,62.37,0,0,1,19.93-4.07,37.28,37.28,0,0,1,10.28,1.26,38,38,0,0,1,9.55,4.12c6,3.6,10.95,8.45,15.48,13.48s8.75,10.33,13,15.51c8.47,10.4,17.33,20.42,27.42,29.07a110.8,110.8,0,0,0,16.09,11.61,70.41,70.41,0,0,0,8.87,4.41,44.35,44.35,0,0,0,4.67,1.61,28,28,0,0,0,4.77,1h.07a.62.62,0,0,1,.56.68A.63.63,0,0,1,352.71,641.68Z" style="fill: #fff;opacity: 0.5"/>
          </g>
          <g>
            <path d="M401.94,392.25s-3.18-55.14-29.73-67.81-75.49-17.95-83.74-96.82c-4.82-46.18-7.62-66.32-9.1-75.08a5.23,5.23,0,0,1,5.69-6.08C309.44,149,389,161.29,409.63,213.19,434.16,274.72,401.94,392.25,401.94,392.25Z" style="fill: url(#linear-gradient-9)"/>
            <path d="M305.56,166.77a232.41,232.41,0,0,1,22.52,19.61l2.66,2.61,2.6,2.68c1.74,1.78,3.48,3.56,5.15,5.4,3.41,3.63,6.65,7.41,9.93,11.17s6.38,7.65,9.36,11.64,6,8,8.89,12a280.58,280.58,0,0,1,15.91,25.41c1.18,2.22,2.4,4.43,3.55,6.67l3.12,6.88,1.56,3.44,1.35,3.53,2.65,7.06,2.26,7.19,1.12,3.6.93,3.65c.62,2.43,1.27,4.86,1.82,7.3l1.49,7.37a215.84,215.84,0,0,1,3,59.83,2.16,2.16,0,0,1-4.3-.28v-.13a224.8,224.8,0,0,0-.88-29.21A265.06,265.06,0,0,0,396,315.3l-1.58-7.13c-.58-2.36-1.25-4.7-1.86-7.05l-.93-3.53-1.12-3.47-2.23-6.93-2.61-6.79-1.29-3.4-1.49-3.32-3-6.62c-1.11-2.16-2.27-4.28-3.4-6.42-2.18-4.3-4.83-8.45-7.3-12.66-1.22-2.12-2.62-4.13-3.92-6.2s-2.61-4.15-4-6.14c-5.43-8.15-11.28-16-17.29-23.75-3.08-3.81-6.14-7.65-9.35-11.36-1.56-1.89-3.19-3.73-4.81-5.56l-2.44-2.76-2.5-2.71c-6.62-7.23-13.55-14.27-20.81-20.81l0,0a1.22,1.22,0,0,1,1.55-1.88Z" style="fill: #4838da"/>
          </g>
          <g>
            <path d="M408.72,638.05c5.18,3-46.3-70.95-56.81-182.55-5-52.58-.92-117.82-29-144.85-23.35-22.48-108.19-14.61-136-11.33a4.13,4.13,0,0,0-2.38,7.08c12.48,11.91,39,39.81,44.69,66.59,7.48,35.29,39.06,59.45,68.2,67.29S342.64,455,354,503.08,394,629.63,408.72,638.05Z" style="fill: url(#linear-gradient-10)"/>
            <path d="M224.65,316.51a133.58,133.58,0,0,1,50.51,16.16,105.08,105.08,0,0,1,21.61,15.88,90.93,90.93,0,0,1,16.47,21.29l1.61,3c.53,1,1,2,1.46,3.05s1,2.05,1.39,3.07L319,382q2.58,6.09,5.07,12.23,5,12.27,9.56,24.7c6.12,16.56,11.72,33.31,16.27,50.41a.84.84,0,0,1-1.61.48v0c-2.76-8.32-5.68-16.64-8.76-24.88s-6.16-16.47-9.38-24.66L325.26,408l-5-12.21c-1.66-4.07-3.37-8.12-5.09-12.17l-1.28-3c-.43-1-.91-2-1.36-2.94s-.87-2-1.37-2.92l-1.53-2.84A89.89,89.89,0,0,0,294,351.34a100.21,100.21,0,0,0-9.8-8.47l-1.29-1-1.32-.94c-.89-.62-1.76-1.27-2.66-1.87-1.81-1.19-3.62-2.4-5.5-3.49a135.32,135.32,0,0,0-23.63-11.06,140.53,140.53,0,0,0-25.32-6.67h-.05a.68.68,0,0,1-.56-.77A.67.67,0,0,1,224.65,316.51Z" style="fill: #1f5aa9"/>
          </g>
          <g>
            <path d="M359.56,646.56C362.74,648.23,341.66,612,340,580s-8.83-86.52-36.39-119.15-57.76-35.62-95.79-5.95c-31.7,24.73-51.47,37.2-63.07,39.52a4.39,4.39,0,0,0-2.94,6.39c7.44,13.7,28.47,45.16,63.77,42.94,45-2.82,99.61-32.1,116.25-7.68s14.5,38.09,15,49.66S338.53,635.47,359.56,646.56Z" style="fill: url(#linear-gradient-11)"/>
            <path d="M220.7,494.14a89.56,89.56,0,0,1,7.84-6.61c2.71-2.06,5.52-4,8.44-5.83a84.25,84.25,0,0,1,18.67-8.82,58.58,58.58,0,0,1,10.23-2.31,43.36,43.36,0,0,1,10.62-.05c.89.15,1.78.23,2.66.43s1.77.37,2.61.61l5,1.54,4.87,1.9,4.72,2.27a59.13,59.13,0,0,1,16.44,12.87,73.31,73.31,0,0,1,11.37,17.32l1.13,2.32c.39.77.67,1.58,1,2.37.63,1.59,1.32,3.16,1.92,4.77l1.67,4.85c.58,1.6,1,3.27,1.43,4.91a175.62,175.62,0,0,1,4.27,19.94.75.75,0,0,1-1.47.3v0c-1.6-6.55-3.14-13.11-5.34-19.44-1-3.2-2.25-6.3-3.42-9.43-.63-1.54-1.35-3-2-4.57-.35-.75-.65-1.53-1-2.26L321.1,509a74.93,74.93,0,0,0-11.24-16.19A58,58,0,0,0,294.36,481l-4.43-2.09-4.59-1.76-4.71-1.43c-.78-.22-1.55-.37-2.32-.56s-1.57-.26-2.35-.39a39.44,39.44,0,0,0-9.59,0,54.66,54.66,0,0,0-9.57,1.93,92.86,92.86,0,0,0-18.25,7.74c-2.91,1.61-5.8,3.29-8.61,5.12s-5.57,3.75-8.21,5.77l0,0a.78.78,0,0,1-1-1.18Z" style="fill: #4838da"/>
          </g>
        </g>
        <g>
          <path d="M338.29,458.39l5.53,172a55.94,55.94,0,0,0,55.72,54l411.85,2.43a40.36,40.36,0,0,0,40.25-34.36c6.44-43.43,14.65-121.14,5.41-194.09Z" style="fill: url(#linear-gradient-12)"/>
          <path d="M796.8,676.27h-3a.51.51,0,0,1-.5-.51.5.5,0,0,1,.5-.49h3a.51.51,0,0,1,.5.51A.49.49,0,0,1,796.8,676.27Zm7,0a.51.51,0,0,1-.5-.47.49.49,0,0,1,.47-.53c1-.06,2-.16,2.94-.3a.5.5,0,1,1,.14,1c-1,.14-2,.24-3,.31Zm-17,0h0l-3,0a.5.5,0,1,1,0-1h0l3,0a.5.5,0,0,1,.5.5A.5.5,0,0,1,786.8,676.22Zm-10-.06h0l-3,0a.5.5,0,0,1,0-1h0l3,0a.5.5,0,0,1,.5.5A.5.5,0,0,1,776.8,676.16Zm-10-.06h0l-3,0a.5.5,0,0,1-.5-.5.54.54,0,0,1,.5-.5l3,0a.5.5,0,0,1,0,1Zm-10-.06h0l-3,0a.5.5,0,0,1,0-1h0l3,0a.5.5,0,0,1,0,1Zm-10-.06h0l-3,0a.5.5,0,0,1-.5-.5.52.52,0,0,1,.51-.5l3,0a.5.5,0,0,1,0,1Zm-10-.06h0l-3,0a.5.5,0,0,1-.5-.5.5.5,0,0,1,.5-.5h0l3,0a.5.5,0,0,1,0,1Zm-10-.06h0l-3,0a.5.5,0,0,1-.5-.5.51.51,0,0,1,.5-.5h0l3,0a.5.5,0,0,1,0,1Zm-10-.06h-3a.51.51,0,0,1-.5-.51.5.5,0,0,1,.5-.49h3a.5.5,0,0,1,.49.51A.49.49,0,0,1,716.8,675.8Zm-10-.06h-3a.51.51,0,0,1-.5-.51.5.5,0,0,1,.5-.49h3a.51.51,0,0,1,.49.51A.49.49,0,0,1,706.8,675.74Zm-10-.06h-3a.5.5,0,1,1,0-1h3a.51.51,0,0,1,.49.51A.49.49,0,0,1,696.8,675.68Zm-10,0h0l-3,0a.5.5,0,1,1,0-1h0l3,0a.49.49,0,0,1,.49.5A.5.5,0,0,1,686.8,675.63Zm-10-.06h0l-3,0a.5.5,0,0,1-.5-.5.51.51,0,0,1,.5-.5h0l3,0a.49.49,0,0,1,.49.5A.5.5,0,0,1,676.8,675.57Zm-10-.06h0l-3,0a.5.5,0,0,1-.5-.5.51.51,0,0,1,.5-.5h0l3,0a.49.49,0,0,1,.49.5A.5.5,0,0,1,666.8,675.51Zm-10-.06h0l-3,0a.5.5,0,0,1-.5-.5.51.51,0,0,1,.5-.5h0l3,0a.5.5,0,0,1,0,1Zm-10-.06h0l-3,0a.5.5,0,0,1-.5-.5.56.56,0,0,1,.51-.5l3,0a.5.5,0,0,1,0,1Zm-10-.06h0l-3,0a.5.5,0,0,1-.5-.5.51.51,0,0,1,.5-.5h0l3,0a.5.5,0,0,1,0,1Zm-10-.06h0l-3,0a.5.5,0,0,1-.5-.5.55.55,0,0,1,.51-.5l3,0a.5.5,0,0,1,0,1Zm-10-.06h-3a.52.52,0,0,1-.5-.51.51.51,0,0,1,.5-.49h3a.5.5,0,0,1,0,1Zm-10-.06h-3a.51.51,0,0,1-.5-.51.52.52,0,0,1,.51-.49h3a.5.5,0,0,1,.49.51A.49.49,0,0,1,606.8,675.15Zm-10,0h0l-3,0a.5.5,0,0,1,0-1h0l3,0a.5.5,0,0,1,.5.5A.51.51,0,0,1,596.81,675.1Zm-10-.06h0l-3,0a.5.5,0,0,1,0-1h0l3,0a.5.5,0,0,1,.5.5A.51.51,0,0,1,586.81,675Zm-10-.06h0l-3,0a.5.5,0,0,1,0-1h0l3,0a.5.5,0,0,1,.5.5A.51.51,0,0,1,576.81,675Zm-10-.06h0l-3,0a.5.5,0,0,1,0-1h0l3,0a.5.5,0,0,1,.5.5A.51.51,0,0,1,566.81,674.92Zm-10-.06h0l-3,0a.5.5,0,0,1,0-1h0l3,0a.5.5,0,0,1,.5.5A.51.51,0,0,1,556.81,674.86Zm-10-.06h0l-3,0a.49.49,0,0,1-.49-.5.5.5,0,0,1,.5-.5h0l3,0a.5.5,0,0,1,.5.5A.51.51,0,0,1,546.81,674.8Zm-10-.06h0l-3,0a.49.49,0,0,1-.49-.5.5.5,0,0,1,.5-.5h0l3,0a.5.5,0,0,1,.5.5A.51.51,0,0,1,536.81,674.74Zm-10-.06h-3a.5.5,0,0,1-.49-.51.49.49,0,0,1,.5-.49h3a.5.5,0,1,1,0,1Zm-10-.06h-3a.51.51,0,0,1-.49-.51.49.49,0,0,1,.5-.49h3a.51.51,0,0,1,.5.51A.5.5,0,0,1,516.81,674.62Zm-10-.06h-3a.5.5,0,0,1-.49-.51.53.53,0,0,1,.5-.49h3a.51.51,0,0,1,.5.51A.5.5,0,0,1,506.81,674.56Zm-10,0h0l-3,0a.5.5,0,0,1,0-1h0l3,0a.5.5,0,0,1,.5.5A.51.51,0,0,1,496.81,674.51Zm-10-.06h0l-3,0a.5.5,0,0,1-.49-.5.51.51,0,0,1,.5-.5l3,0a.5.5,0,0,1,.5.5A.5.5,0,0,1,486.81,674.45Zm-10-.06h0l-3,0a.5.5,0,0,1,0-1h0l3,0a.5.5,0,0,1,.5.5A.5.5,0,0,1,476.81,674.39Zm336.78-.06a.5.5,0,0,1-.16-1c.93-.31,1.86-.66,2.77-1a.5.5,0,0,1,.66.26.52.52,0,0,1-.27.66c-.93.39-1.89.75-2.84,1.07A.47.47,0,0,1,813.59,674.33Zm-346.78,0h0l-3,0a.5.5,0,0,1,0-1l3,0a.5.5,0,1,1,0,1Zm-10-.06h0l-3,0a.5.5,0,0,1,0-1h0l3,0a.5.5,0,0,1,0,1Zm-10-.06h0l-3,0a.49.49,0,0,1-.49-.5.5.5,0,0,1,.5-.5h0l3,0a.5.5,0,0,1,0,1Zm-10-.06h0l-3,0a.49.49,0,0,1-.49-.5.5.5,0,0,1,.5-.5h0l3,0a.5.5,0,1,1,0,1Zm-10-.06h-3a.51.51,0,0,1-.5-.51.49.49,0,0,1,.5-.49h3a.5.5,0,1,1,0,1Zm-10-.06h-3a.5.5,0,0,1-.5-.51.49.49,0,0,1,.5-.49h3a.51.51,0,0,1,.5.51A.5.5,0,0,1,416.81,674Zm-10-.11h0c-1,0-2-.13-3-.23a.5.5,0,0,1-.45-.55.5.5,0,0,1,.55-.45c1,.11,2,.18,3,.23a.51.51,0,0,1,.48.53A.5.5,0,0,1,406.81,673.92Zm-9.88-1.42h-.12c-1-.24-2-.51-2.92-.8a.5.5,0,1,1,.29-1c.94.28,1.91.54,2.87.77a.51.51,0,0,1,.36.61A.49.49,0,0,1,396.93,672.5ZM822.56,670a.49.49,0,0,1-.41-.22.5.5,0,0,1,.14-.7c.82-.54,1.64-1.12,2.41-1.71a.5.5,0,0,1,.61.79c-.79.61-1.63,1.2-2.47,1.76A.48.48,0,0,1,822.56,670Zm-435.07-.73a.52.52,0,0,1-.21,0c-.91-.42-1.82-.86-2.72-1.33A.5.5,0,1,1,385,667c.87.45,1.77.89,2.66,1.29a.51.51,0,0,1,.25.67A.49.49,0,0,1,387.49,669.26Zm-8.67-4.94a.52.52,0,0,1-.29-.09c-.82-.58-1.63-1.18-2.42-1.81a.5.5,0,0,1-.09-.7.51.51,0,0,1,.71-.08c.77.61,1.57,1.2,2.38,1.77a.51.51,0,0,1,.12.7A.49.49,0,0,1,378.82,664.32Zm451.31-.83a.54.54,0,0,1-.34-.12.51.51,0,0,1,0-.71c.66-.73,1.29-1.5,1.89-2.28a.5.5,0,0,1,.7-.09.51.51,0,0,1,.1.7c-.62.8-1.27,1.59-1.94,2.34A.5.5,0,0,1,830.13,663.49Zm-458.91-5.64a.51.51,0,0,1-.36-.15c-.7-.72-1.39-1.47-2.05-2.22a.51.51,0,0,1,.05-.71.49.49,0,0,1,.7.05c.65.74,1.33,1.48,2,2.18a.5.5,0,0,1,0,.71A.47.47,0,0,1,371.22,657.85Zm464.54-2.58a.49.49,0,0,1-.23-.06.5.5,0,0,1-.22-.67c.45-.87.86-1.78,1.24-2.69a.5.5,0,0,1,.65-.27.51.51,0,0,1,.27.66c-.38.93-.81,1.86-1.26,2.76A.51.51,0,0,1,835.76,655.27ZM365,650.08a.52.52,0,0,1-.42-.22c-.56-.84-1.09-1.71-1.6-2.57a.5.5,0,1,1,.86-.51c.5.85,1,1.7,1.57,2.53a.49.49,0,0,1-.14.69A.45.45,0,0,1,365,650.08Zm474.11-4.21H839a.5.5,0,0,1-.38-.6c.15-.73.28-1.48.4-2.23l.1-.69a.49.49,0,0,1,.56-.42.5.5,0,0,1,.43.56l-.11.69c-.11.77-.25,1.55-.41,2.3A.5.5,0,0,1,839.06,645.87Zm-478.82-4.6a.5.5,0,0,1-.46-.3c-.39-.93-.75-1.88-1.09-2.83a.5.5,0,0,1,.94-.34c.33.94.69,1.87,1.07,2.78a.49.49,0,0,1-.27.65A.41.41,0,0,1,360.24,641.27ZM840.57,636h-.07a.49.49,0,0,1-.43-.56c.14-1,.27-2,.41-3a.5.5,0,0,1,1,.13c-.14,1-.27,2-.41,3A.5.5,0,0,1,840.57,636Zm-483.29-4.25a.5.5,0,0,1-.49-.4c-.21-1-.39-2-.53-3a.49.49,0,0,1,.42-.57.5.5,0,0,1,.56.42c.15,1,.33,2,.53,2.93a.51.51,0,0,1-.39.59Zm484.61-5.67h-.07a.49.49,0,0,1-.43-.56l.37-3a.5.5,0,0,1,1,.12l-.38,3A.5.5,0,0,1,841.89,626.06Zm-485.73-4.25a.5.5,0,0,1-.5-.48l-.09-3a.5.5,0,0,1,1,0l.09,3a.5.5,0,0,1-.48.52Zm486.93-5.67H843a.49.49,0,0,1-.44-.55c.11-1,.22-2,.34-3a.5.5,0,0,1,.55-.44.5.5,0,0,1,.44.55c-.11,1-.23,2-.34,3A.51.51,0,0,1,843.09,616.14Zm-487.25-4.33a.5.5,0,0,1-.5-.48l-.1-3a.51.51,0,0,1,.49-.51.48.48,0,0,1,.51.48l.1,3a.49.49,0,0,1-.48.51Zm488.35-5.62h-.05a.5.5,0,0,1-.45-.55c.1-1,.2-2,.31-3a.5.5,0,1,1,1,.1c-.1,1-.2,2-.31,3A.49.49,0,0,1,844.19,606.19Zm-488.67-4.37a.5.5,0,0,1-.5-.48l-.1-3a.5.5,0,1,1,1,0l.1,3a.5.5,0,0,1-.48.52Zm489.65-5.58h0a.5.5,0,0,1-.45-.55c.09-1,.18-2,.27-3a.5.5,0,0,1,.54-.46.51.51,0,0,1,.46.55l-.27,3A.51.51,0,0,1,845.17,596.24Zm-490-4.42a.5.5,0,0,1-.5-.48l-.1-3a.5.5,0,0,1,1,0l.1,3a.5.5,0,0,1-.49.51ZM846,586.28h0a.5.5,0,0,1-.46-.53l.24-3a.49.49,0,0,1,.54-.46.5.5,0,0,1,.46.53l-.24,3A.5.5,0,0,1,846,586.28Zm-491.15-4.45a.5.5,0,0,1-.5-.48l-.1-3a.5.5,0,0,1,.48-.52.51.51,0,0,1,.52.49l.1,3a.5.5,0,0,1-.49.52Zm491.9-5.53h0a.5.5,0,0,1-.46-.53l.2-3a.5.5,0,1,1,1,.06l-.2,3A.49.49,0,0,1,846.78,576.3Zm-492.22-4.47a.49.49,0,0,1-.5-.48l-.1-3a.5.5,0,0,1,.48-.51.49.49,0,0,1,.52.48l.1,3a.5.5,0,0,1-.49.51Zm492.84-5.51h0a.5.5,0,0,1-.47-.53c.05-1,.11-2,.16-3a.5.5,0,1,1,1,.05c0,1-.11,2-.16,3A.51.51,0,0,1,847.4,566.32Zm-493.17-4.48a.5.5,0,0,1-.5-.48l-.09-3a.5.5,0,0,1,.48-.52.51.51,0,0,1,.52.49l.09,3a.5.5,0,0,1-.48.52Zm493.66-5.51h0a.5.5,0,0,1-.48-.52c.05-1,.09-2,.13-3a.49.49,0,0,1,.51-.48.5.5,0,0,1,.48.52c0,1-.08,2-.12,3A.5.5,0,0,1,847.89,556.33Zm-494-4.48a.51.51,0,0,1-.5-.49l-.09-3a.49.49,0,0,1,.48-.51.51.51,0,0,1,.52.48l.09,3a.5.5,0,0,1-.48.52Zm494.34-5.52h0a.5.5,0,0,1-.49-.51l.09-3a.5.5,0,0,1,.51-.49.52.52,0,0,1,.49.52l-.09,3A.49.49,0,0,1,848.25,546.33Zm-494.66-4.48a.5.5,0,0,1-.5-.48l-.09-3a.5.5,0,1,1,1,0l.1,3a.5.5,0,0,1-.48.52Zm494.89-5.51h0a.5.5,0,0,1-.49-.51c0-1,0-2,0-3a.51.51,0,0,1,.5-.49.5.5,0,0,1,.5.5c0,1,0,2,0,3A.51.51,0,0,1,848.48,536.34Zm-495.21-4.48a.51.51,0,0,1-.5-.49l-.1-3a.5.5,0,0,1,1,0l.1,3a.5.5,0,0,1-.48.52Zm495.29-5.52a.5.5,0,0,1-.5-.5v-.25c0-.91,0-1.83,0-2.75a.5.5,0,0,1,.5-.5h0a.5.5,0,0,1,.5.5c0,.92,0,1.84,0,2.75v.25A.51.51,0,0,1,848.56,526.34ZM353,521.86a.5.5,0,0,1-.5-.48l-.1-3a.5.5,0,0,1,.49-.52.49.49,0,0,1,.51.49l.1,3a.5.5,0,0,1-.49.52Zm495.53-5.52a.51.51,0,0,1-.5-.49c0-1,0-2-.05-3a.5.5,0,0,1,.49-.51.51.51,0,0,1,.51.49c0,1,0,2,.05,3a.5.5,0,0,1-.49.51Zm-495.85-4.47a.51.51,0,0,1-.5-.49l-.1-3a.5.5,0,0,1,1,0l.1,3a.5.5,0,0,1-.49.52Zm495.62-5.53a.5.5,0,0,1-.5-.48c0-1-.07-2-.1-3a.49.49,0,0,1,.48-.52.47.47,0,0,1,.51.48c0,1,.08,2,.11,3a.5.5,0,0,1-.49.51Zm-495.94-4.47a.49.49,0,0,1-.5-.48l-.1-3a.5.5,0,1,1,1,0l.1,3a.51.51,0,0,1-.49.51Zm495.53-5.52a.5.5,0,0,1-.5-.47l-.15-3a.49.49,0,0,1,.47-.53.52.52,0,0,1,.53.47l.15,3a.49.49,0,0,1-.47.52ZM352,491.88a.5.5,0,0,1-.49-.49l-.1-3a.5.5,0,0,1,1,0l.09,3a.5.5,0,0,1-.48.52Zm495.28-5.51a.5.5,0,0,1-.5-.46l-.21-3a.5.5,0,0,1,.46-.54.5.5,0,0,1,.54.46l.21,3a.5.5,0,0,1-.47.53Zm-495.6-4.49a.5.5,0,0,1-.5-.48l-.09-3a.5.5,0,0,1,.48-.52.5.5,0,0,1,.52.49l.09,3a.49.49,0,0,1-.48.51Zm494.82-5.48A.49.49,0,0,1,846,476c-.09-1-.18-2-.28-3a.5.5,0,0,1,1-.09c.09,1,.19,2,.27,3a.49.49,0,0,1-.45.54Zm-495.14-4.51a.51.51,0,0,1-.5-.49l-.09-3a.49.49,0,0,1,.48-.51.51.51,0,0,1,.52.48l.09,3a.5.5,0,0,1-.48.52Zm494.16-5.44A.5.5,0,0,1,845,466c-.11-1-.22-2-.34-3a.51.51,0,0,1,.44-.56.51.51,0,0,1,.56.44l.33,3a.5.5,0,0,1-.44.55ZM351,461.89a.5.5,0,0,1-.5-.48l-.11-3.52h1.81a.5.5,0,0,1,.5.5.5.5,0,0,1-.5.5h-.78l.08,2.49a.5.5,0,0,1-.48.51Zm491.2-3h-3a.5.5,0,0,1-.5-.5.51.51,0,0,1,.5-.5h3a.5.5,0,0,1,.5.5A.5.5,0,0,1,842.22,458.89Zm-10,0h-3a.5.5,0,0,1-.5-.5.51.51,0,0,1,.5-.5h3a.5.5,0,0,1,.5.5A.5.5,0,0,1,832.22,458.89Zm-10,0h-3a.5.5,0,0,1-.5-.5.51.51,0,0,1,.5-.5h3a.5.5,0,0,1,.5.5A.5.5,0,0,1,822.22,458.89Zm-10,0h-3a.5.5,0,0,1-.5-.5.51.51,0,0,1,.5-.5h3a.5.5,0,0,1,.5.5A.5.5,0,0,1,812.22,458.89Zm-10,0h-3a.5.5,0,0,1-.5-.5.51.51,0,0,1,.5-.5h3a.5.5,0,0,1,.5.5A.5.5,0,0,1,802.22,458.89Zm-10,0h-3a.5.5,0,0,1-.5-.5.51.51,0,0,1,.5-.5h3a.5.5,0,0,1,.5.5A.5.5,0,0,1,792.22,458.89Zm-10,0h-3a.5.5,0,0,1-.5-.5.51.51,0,0,1,.5-.5h3a.5.5,0,0,1,.5.5A.5.5,0,0,1,782.22,458.89Zm-10,0h-3a.5.5,0,0,1-.5-.5.51.51,0,0,1,.5-.5h3a.5.5,0,0,1,.5.5A.5.5,0,0,1,772.22,458.89Zm-10,0h-3a.5.5,0,0,1-.5-.5.51.51,0,0,1,.5-.5h3a.5.5,0,0,1,.5.5A.5.5,0,0,1,762.22,458.89Zm-10,0h-3a.5.5,0,0,1-.5-.5.51.51,0,0,1,.5-.5h3a.5.5,0,0,1,.5.5A.5.5,0,0,1,752.22,458.89Zm-10,0h-3a.5.5,0,0,1-.5-.5.51.51,0,0,1,.5-.5h3a.5.5,0,0,1,.5.5A.5.5,0,0,1,742.22,458.89Zm-10,0h-3a.5.5,0,0,1-.5-.5.51.51,0,0,1,.5-.5h3a.5.5,0,0,1,.5.5A.5.5,0,0,1,732.22,458.89Zm-10,0h-3a.5.5,0,0,1-.5-.5.51.51,0,0,1,.5-.5h3a.5.5,0,0,1,.5.5A.5.5,0,0,1,722.22,458.89Zm-10,0h-3a.5.5,0,0,1-.5-.5.51.51,0,0,1,.5-.5h3a.5.5,0,0,1,.5.5A.5.5,0,0,1,712.22,458.89Zm-10,0h-3a.5.5,0,0,1-.5-.5.51.51,0,0,1,.5-.5h3a.5.5,0,0,1,.5.5A.5.5,0,0,1,702.22,458.89Zm-10,0h-3a.5.5,0,0,1-.5-.5.51.51,0,0,1,.5-.5h3a.5.5,0,0,1,.5.5A.5.5,0,0,1,692.22,458.89Zm-10,0h-3a.5.5,0,0,1-.5-.5.51.51,0,0,1,.5-.5h3a.5.5,0,0,1,.5.5A.5.5,0,0,1,682.22,458.89Zm-10,0h-3a.5.5,0,0,1-.5-.5.51.51,0,0,1,.5-.5h3a.5.5,0,0,1,.5.5A.5.5,0,0,1,672.22,458.89Zm-10,0h-3a.5.5,0,0,1-.5-.5.51.51,0,0,1,.5-.5h3a.5.5,0,0,1,.5.5A.5.5,0,0,1,662.22,458.89Zm-10,0h-3a.5.5,0,0,1-.5-.5.51.51,0,0,1,.5-.5h3a.5.5,0,0,1,.5.5A.5.5,0,0,1,652.22,458.89Zm-10,0h-3a.5.5,0,0,1-.5-.5.51.51,0,0,1,.5-.5h3a.5.5,0,0,1,.5.5A.5.5,0,0,1,642.22,458.89Zm-10,0h-3a.5.5,0,0,1-.5-.5.51.51,0,0,1,.5-.5h3a.5.5,0,0,1,.5.5A.5.5,0,0,1,632.22,458.89Zm-10,0h-3a.5.5,0,0,1-.5-.5.51.51,0,0,1,.5-.5h3a.5.5,0,0,1,.5.5A.5.5,0,0,1,622.22,458.89Zm-10,0h-3a.5.5,0,0,1-.5-.5.51.51,0,0,1,.5-.5h3a.5.5,0,0,1,.5.5A.5.5,0,0,1,612.22,458.89Zm-10,0h-3a.5.5,0,0,1-.5-.5.51.51,0,0,1,.5-.5h3a.5.5,0,0,1,.5.5A.5.5,0,0,1,602.22,458.89Zm-10,0h-3a.5.5,0,0,1-.5-.5.51.51,0,0,1,.5-.5h3a.5.5,0,0,1,.5.5A.5.5,0,0,1,592.22,458.89Zm-10,0h-3a.5.5,0,0,1-.5-.5.51.51,0,0,1,.5-.5h3a.5.5,0,0,1,.5.5A.5.5,0,0,1,582.22,458.89Zm-10,0h-3a.5.5,0,0,1-.5-.5.51.51,0,0,1,.5-.5h3a.5.5,0,0,1,.5.5A.5.5,0,0,1,572.22,458.89Zm-10,0h-3a.5.5,0,0,1-.5-.5.51.51,0,0,1,.5-.5h3a.5.5,0,0,1,.5.5A.5.5,0,0,1,562.22,458.89Zm-10,0h-3a.5.5,0,0,1-.5-.5.51.51,0,0,1,.5-.5h3a.5.5,0,0,1,.5.5A.5.5,0,0,1,552.22,458.89Zm-10,0h-3a.5.5,0,0,1-.5-.5.51.51,0,0,1,.5-.5h3a.5.5,0,0,1,.5.5A.5.5,0,0,1,542.22,458.89Zm-10,0h-3a.5.5,0,0,1-.5-.5.51.51,0,0,1,.5-.5h3a.5.5,0,0,1,.5.5A.5.5,0,0,1,532.22,458.89Zm-10,0h-3a.5.5,0,0,1-.5-.5.51.51,0,0,1,.5-.5h3a.5.5,0,0,1,.5.5A.5.5,0,0,1,522.22,458.89Zm-10,0h-3a.5.5,0,0,1-.5-.5.51.51,0,0,1,.5-.5h3a.5.5,0,0,1,.5.5A.5.5,0,0,1,512.22,458.89Zm-10,0h-3a.5.5,0,0,1-.5-.5.51.51,0,0,1,.5-.5h3a.5.5,0,0,1,.5.5A.5.5,0,0,1,502.22,458.89Zm-10,0h-3a.5.5,0,0,1-.5-.5.51.51,0,0,1,.5-.5h3a.5.5,0,0,1,.5.5A.5.5,0,0,1,492.22,458.89Zm-10,0h-3a.5.5,0,0,1-.5-.5.51.51,0,0,1,.5-.5h3a.5.5,0,0,1,.5.5A.5.5,0,0,1,482.22,458.89Zm-10,0h-3a.5.5,0,0,1-.5-.5.51.51,0,0,1,.5-.5h3a.5.5,0,0,1,.5.5A.5.5,0,0,1,472.22,458.89Zm-10,0h-3a.5.5,0,0,1-.5-.5.51.51,0,0,1,.5-.5h3a.5.5,0,0,1,.5.5A.5.5,0,0,1,462.22,458.89Zm-10,0h-3a.5.5,0,0,1-.5-.5.51.51,0,0,1,.5-.5h3a.5.5,0,0,1,.5.5A.5.5,0,0,1,452.22,458.89Zm-10,0h-3a.5.5,0,0,1-.5-.5.51.51,0,0,1,.5-.5h3a.5.5,0,0,1,.5.5A.5.5,0,0,1,442.22,458.89Zm-10,0h-3a.5.5,0,0,1-.5-.5.51.51,0,0,1,.5-.5h3a.5.5,0,0,1,.5.5A.5.5,0,0,1,432.22,458.89Zm-10,0h-3a.5.5,0,0,1-.5-.5.51.51,0,0,1,.5-.5h3a.5.5,0,0,1,.5.5A.5.5,0,0,1,422.22,458.89Zm-10,0h-3a.5.5,0,0,1-.5-.5.51.51,0,0,1,.5-.5h3a.5.5,0,0,1,.5.5A.5.5,0,0,1,412.22,458.89Zm-10,0h-3a.5.5,0,0,1-.5-.5.51.51,0,0,1,.5-.5h3a.5.5,0,0,1,.5.5A.5.5,0,0,1,402.22,458.89Zm-10,0h-3a.5.5,0,0,1-.5-.5.51.51,0,0,1,.5-.5h3a.5.5,0,0,1,.5.5A.5.5,0,0,1,392.22,458.89Zm-10,0h-3a.5.5,0,0,1-.5-.5.51.51,0,0,1,.5-.5h3a.5.5,0,0,1,.5.5A.5.5,0,0,1,382.22,458.89Zm-10,0h-3a.5.5,0,0,1-.5-.5.51.51,0,0,1,.5-.5h3a.5.5,0,0,1,.5.5A.5.5,0,0,1,372.22,458.89Zm-10,0h-3a.5.5,0,0,1-.5-.5.51.51,0,0,1,.5-.5h3a.5.5,0,0,1,.5.5A.5.5,0,0,1,362.22,458.89Z" style="fill: #fff"/>
          <path d="M459,333.54l1.24-13.26a10.2,10.2,0,0,1,7.73-6c12.83-2,44.65-5.63,60,5.82l2.28,15.41Z" style="fill: url(#linear-gradient-13)"/>
          <path d="M499.07,320.78a18.4,18.4,0,0,1-8.88,0,8,8,0,0,1-6.12-7.77V271.47h21.14V313A8.06,8.06,0,0,1,499.07,320.78Z" style="fill: url(#linear-gradient-14)"/>
          <path d="M663.71,333.54,665,320.28a10.2,10.2,0,0,1,7.74-6c12.83-2,44.65-5.63,60,5.82L735,335.55Z" style="fill: url(#linear-gradient-15)"/>
          <path d="M703.79,320.78a18.4,18.4,0,0,1-8.88,0A8,8,0,0,1,688.8,313V267.09h21.13V313A8,8,0,0,1,703.79,320.78Z" style="fill: url(#linear-gradient-16)"/>
          <path d="M481.93,281.65l227.31-7.53a11,11,0,0,0,10.47-9,92.76,92.76,0,0,0,.7-28.82A26.23,26.23,0,0,0,695,214.12c-42.41-1-150.36-1-209.86,22.56a20.78,20.78,0,0,0-12.55,14.42c-1.52,6.25-2.53,14.59-.54,23.08A9.79,9.79,0,0,0,481.93,281.65Z" style="fill: url(#linear-gradient-17)"/>
          <path d="M478,269.83a1,1,0,0,1-1-.9,53,53,0,0,1,1.36-17.13,18.93,18.93,0,0,1,12.9-13.11c12.67-3.72,36.87-10,56.64-10.59a1,1,0,0,1,.05,2c-19.54.55-43.55,6.82-56.12,10.5a16.94,16.94,0,0,0-11.54,11.72,52.08,52.08,0,0,0-1.3,16.41,1,1,0,0,1-.9,1.1Z" style="fill: #fff"/>
          <path d="M353.52,328.37c73.44-.94,391.12-4.27,483.4,6.86a18.78,18.78,0,0,1,16.15,14.55c5.46,24.65,16.43,81.92,15.13,138.68a16.45,16.45,0,0,1-13.47,15.69L644.08,544H569.26L344.81,499.38a17.54,17.54,0,0,1-14.15-16.29c-1.46-28.56-3.74-95.56,4-138.7A19.42,19.42,0,0,1,353.52,328.37Z" style="fill: url(#linear-gradient-18)"/>
          <path d="M642.35,526.35h-3a.51.51,0,0,1-.5-.5.5.5,0,0,1,.5-.5h3a.5.5,0,0,1,.5.5A.5.5,0,0,1,642.35,526.35Zm-10,0h-3a.51.51,0,0,1-.5-.5.5.5,0,0,1,.5-.5h3a.5.5,0,0,1,.5.5A.5.5,0,0,1,632.35,526.35Zm-10,0h-3a.51.51,0,0,1-.5-.5.5.5,0,0,1,.5-.5h3a.5.5,0,0,1,.5.5A.5.5,0,0,1,622.35,526.35Zm-10,0h-3a.51.51,0,0,1-.5-.5.5.5,0,0,1,.5-.5h3a.5.5,0,0,1,.5.5A.5.5,0,0,1,612.35,526.35Zm-10,0h-3a.51.51,0,0,1-.5-.5.5.5,0,0,1,.5-.5h3a.5.5,0,0,1,.5.5A.5.5,0,0,1,602.35,526.35Zm-10,0h-3a.51.51,0,0,1-.5-.5.5.5,0,0,1,.5-.5h3a.5.5,0,0,1,.5.5A.5.5,0,0,1,592.35,526.35Zm-10,0h-3a.51.51,0,0,1-.5-.5.5.5,0,0,1,.5-.5h3a.5.5,0,0,1,.5.5A.5.5,0,0,1,582.35,526.35Zm-10,0h-1.3l-3-.6a.49.49,0,0,1-.4-.58.51.51,0,0,1,.59-.4l2.94.59h1.21a.5.5,0,0,1,.5.5A.5.5,0,0,1,572.35,526.35Zm76.88-1.3a.49.49,0,0,1-.49-.4.5.5,0,0,1,.4-.59l3-.56a.5.5,0,0,1,.58.4.51.51,0,0,1-.4.59l-2.95.55Zm-88-.65h-.1l-2.94-.59a.5.5,0,0,1-.4-.58.51.51,0,0,1,.59-.4l3,.59a.5.5,0,0,1,.39.59A.51.51,0,0,1,561.24,524.4Zm97.82-1.21a.5.5,0,0,1-.5-.4.51.51,0,0,1,.4-.59l2.95-.55a.5.5,0,1,1,.19,1l-3,.56Zm-107.63-.74h-.1l-2.94-.59a.48.48,0,0,1-.39-.58.5.5,0,0,1,.58-.4l2.95.59a.5.5,0,0,1,.39.59A.51.51,0,0,1,551.43,522.45Zm117.45-1.12a.5.5,0,0,1-.49-.4.51.51,0,0,1,.4-.59l3-.55a.49.49,0,0,1,.58.39.5.5,0,0,1-.4.59l-2.95.56Zm-127.26-.83h-.1l-2.94-.58a.51.51,0,0,1,.2-1l2.94.59a.5.5,0,0,1-.1,1Zm137.09-1a.49.49,0,0,1-.49-.41.51.51,0,0,1,.39-.59l2.95-.55a.5.5,0,1,1,.19,1l-3,.56Zm-146.9-.93h-.09l-3-.58a.51.51,0,0,1-.39-.59A.49.49,0,0,1,529,517l2.94.58a.49.49,0,0,1,.39.59A.49.49,0,0,1,531.81,518.55Zm156.72-.93a.51.51,0,0,1-.49-.41.5.5,0,0,1,.4-.58l2.95-.56a.5.5,0,0,1,.58.4.49.49,0,0,1-.4.58l-2.94.56ZM522,516.6h-.1L519,516a.51.51,0,0,1-.39-.59.5.5,0,0,1,.59-.39l2.94.58a.51.51,0,0,1,.4.59A.5.5,0,0,1,522,516.6Zm176.35-.84a.5.5,0,0,1-.09-1l2.94-.56a.5.5,0,1,1,.19,1l-2.95.56ZM512.2,514.65h-.1l-2.94-.58a.51.51,0,0,1-.4-.59.5.5,0,0,1,.59-.39l2.94.58a.51.51,0,0,1,.4.59A.5.5,0,0,1,512.2,514.65Zm196-.75a.51.51,0,0,1-.49-.41.5.5,0,0,1,.4-.58l2.95-.56a.5.5,0,0,1,.58.4.49.49,0,0,1-.39.58l-3,.56Zm-205.79-1.2h-.1l-2.94-.58a.5.5,0,0,1-.39-.59.48.48,0,0,1,.58-.39l2.95.58a.5.5,0,0,1-.1,1ZM718,512a.5.5,0,0,1-.09-1l3-.56a.5.5,0,0,1,.18,1l-2.95.56Zm-225.43-1.29h-.1l-2.94-.58a.5.5,0,0,1-.39-.59.49.49,0,0,1,.59-.39l2.94.58a.51.51,0,0,1,.39.59A.5.5,0,0,1,492.58,510.75Zm235.26-.57a.49.49,0,0,1-.49-.41.48.48,0,0,1,.39-.58l3-.56a.51.51,0,0,1,.59.4.51.51,0,0,1-.4.59l-3,.55ZM482.77,508.8h-.1l-2.94-.58a.51.51,0,0,1-.39-.59.49.49,0,0,1,.59-.39l2.94.58a.5.5,0,0,1,.39.59A.49.49,0,0,1,482.77,508.8Zm254.89-.48a.5.5,0,0,1-.09-1l2.95-.56a.5.5,0,0,1,.58.4.51.51,0,0,1-.4.59l-3,.55ZM473,506.85h-.09l-2.95-.58a.51.51,0,0,1-.39-.59.49.49,0,0,1,.59-.39l2.94.58a.5.5,0,0,1,.39.59A.49.49,0,0,1,473,506.85Zm274.53-.39a.49.49,0,0,1-.49-.4.5.5,0,0,1,.4-.59l2.94-.55a.5.5,0,0,1,.59.39.51.51,0,0,1-.4.59l-2.95.56ZM463.16,504.9h-.1l-2.94-.58a.51.51,0,0,1-.4-.59.5.5,0,0,1,.59-.39l2.94.58a.51.51,0,0,1,.4.59A.5.5,0,0,1,463.16,504.9Zm294.15-.3a.5.5,0,0,1-.49-.4.51.51,0,0,1,.4-.59l2.95-.55a.48.48,0,0,1,.58.39.5.5,0,0,1-.4.59l-2.94.56Zm-304-1.65h-.1l-2.94-.58a.5.5,0,0,1-.39-.59.48.48,0,0,1,.58-.39l2.95.58a.51.51,0,0,1,.39.59A.5.5,0,0,1,453.35,503Zm313.79-.2a.49.49,0,0,1-.49-.41.51.51,0,0,1,.4-.59l2.94-.55a.5.5,0,1,1,.19,1l-2.95.56ZM443.54,501h-.1l-2.94-.58a.5.5,0,0,1,.2-1l2.94.58a.51.51,0,0,1,.39.59A.5.5,0,0,1,443.54,501ZM777,500.89a.51.51,0,0,1-.49-.41.5.5,0,0,1,.4-.58l3-.56a.5.5,0,0,1,.58.4.48.48,0,0,1-.39.58l-3,.56Zm-343.23-1.84h-.1l-2.94-.58a.5.5,0,0,1-.39-.59.49.49,0,0,1,.59-.39l2.94.58a.5.5,0,0,1,.39.59A.49.49,0,0,1,433.73,499.05Zm353.06,0a.5.5,0,0,1-.09-1l2.95-.56a.5.5,0,0,1,.18,1l-3,.56Zm9.83-1.86a.51.51,0,0,1-.5-.41.5.5,0,0,1,.4-.58l3-.56a.51.51,0,0,1,.59.4.5.5,0,0,1-.4.58l-2.95.56Zm-372.7-.07h-.09l-2.95-.58a.5.5,0,0,1-.39-.59.49.49,0,0,1,.59-.39l2.94.58a.5.5,0,0,1,.39.59A.49.49,0,0,1,423.92,497.1Zm382.52-1.79a.51.51,0,0,1-.49-.41.5.5,0,0,1,.4-.58l2.95-.56a.5.5,0,0,1,.18,1l-3,.56Zm-392.32-.16H414l-2.94-.59a.51.51,0,0,1-.4-.59.5.5,0,0,1,.59-.39l2.94.58a.51.51,0,0,1,.4.59A.5.5,0,0,1,414.12,495.15Zm402.15-1.7a.5.5,0,0,1-.1-1l3-.56a.5.5,0,0,1,.59.4.51.51,0,0,1-.4.59l-2.95.55Zm-412-.24h-.1l-2.94-.59a.49.49,0,0,1-.39-.59.48.48,0,0,1,.58-.39l3,.58a.51.51,0,0,1-.1,1Zm421.78-1.62a.5.5,0,0,1-.09-1l3-.56a.51.51,0,0,1,.58.4.5.5,0,0,1-.4.59l-2.94.55Zm-431.59-.33h-.1l-2.94-.59a.49.49,0,0,1-.39-.59.48.48,0,0,1,.58-.39l3,.59a.49.49,0,0,1,.39.58A.51.51,0,0,1,394.5,491.26Zm441.42-1.53a.49.49,0,0,1-.49-.4.5.5,0,0,1,.4-.59l2.94-.56a.5.5,0,1,1,.19,1l-3,.56Zm-451.23-.42h-.1l-2.94-.59a.5.5,0,1,1,.2-1l2.94.59a.48.48,0,0,1,.39.58A.5.5,0,0,1,384.69,489.31Zm461.05-1.43a.5.5,0,0,1-.09-1l3-.55a.49.49,0,0,1,.58.39.5.5,0,0,1-.39.59l-2.95.56Zm-470.86-.52h-.09l-3-.59a.5.5,0,0,1-.39-.59.49.49,0,0,1,.59-.39l2.94.59a.48.48,0,0,1,.39.58A.49.49,0,0,1,374.88,487.36Zm-9.8-1.95H365l-2.94-.59a.5.5,0,0,1-.4-.59.5.5,0,0,1,.59-.39l2.94.59a.5.5,0,0,1,.4.58A.51.51,0,0,1,365.08,485.41Zm-9.81-2h-.1l-2.94-.59a.5.5,0,1,1,.19-1l2.94.59a.49.49,0,0,1,.4.58A.51.51,0,0,1,355.27,483.46Zm494.88-2h0a.5.5,0,0,1-.5-.5v-3a.5.5,0,0,1,.5-.5h0a.5.5,0,0,1,.5.5v3A.5.5,0,0,1,850.15,481.47ZM348.6,478.8a.5.5,0,0,1-.5-.48c-.05-1-.09-2-.14-3a.5.5,0,0,1,.48-.52.5.5,0,0,1,.52.48c.05,1,.09,2,.14,3a.51.51,0,0,1-.48.53Zm501.47-7.33a.51.51,0,0,1-.5-.49c0-1,0-2-.07-3a.51.51,0,0,1,.49-.52.48.48,0,0,1,.51.49c0,1,0,2,.07,3a.5.5,0,0,1-.49.51Zm-501.9-2.67a.5.5,0,0,1-.5-.48l-.11-3a.49.49,0,0,1,.48-.51.51.51,0,0,1,.52.48l.11,3a.5.5,0,0,1-.48.52Zm501.6-7.32a.5.5,0,0,1-.5-.48c0-1-.09-2-.14-3a.5.5,0,0,1,.48-.53.5.5,0,0,1,.52.48c0,1,.09,2,.14,3a.5.5,0,0,1-.48.52Zm-501.95-2.67a.51.51,0,0,1-.5-.49l-.08-3a.5.5,0,0,1,1,0l.08,3a.5.5,0,0,1-.48.52Zm501.43-7.31a.51.51,0,0,1-.5-.47c-.06-1-.12-2-.19-3a.49.49,0,0,1,.47-.53.5.5,0,0,1,.53.46c.07,1,.13,2,.19,3a.5.5,0,0,1-.47.53Zm-501.68-2.69a.49.49,0,0,1-.5-.49l-.06-3a.49.49,0,0,1,.49-.51.5.5,0,0,1,.51.49l.06,3a.51.51,0,0,1-.49.51Zm501-7.29a.5.5,0,0,1-.49-.46c-.09-1-.17-2-.25-3a.5.5,0,1,1,1-.08c.09,1,.17,2,.25,3a.5.5,0,0,1-.46.54ZM347.4,438.81a.5.5,0,0,1-.5-.5l0-3a.5.5,0,0,1,.49-.5h0a.5.5,0,0,1,.5.49l0,3a.5.5,0,0,1-.49.51Zm500.25-7.25a.5.5,0,0,1-.49-.46l-.3-3a.5.5,0,0,1,.44-.55.5.5,0,0,1,.55.45l.3,3a.49.49,0,0,1-.45.54Zm-500.32-2.75a.5.5,0,0,1-.5-.5v-3a.5.5,0,0,1,.5-.5h0a.5.5,0,0,1,.5.5v3a.5.5,0,0,1-.5.5Zm499.27-7.2a.51.51,0,0,1-.5-.45c-.11-1-.23-2-.35-3a.51.51,0,0,1,.44-.56.5.5,0,0,1,.56.44c.11,1,.23,2,.34,3a.49.49,0,0,1-.43.55Zm-499.23-2.8h0a.49.49,0,0,1-.49-.5l0-3a.5.5,0,0,1,.5-.5h0a.51.51,0,0,1,.49.51l0,3A.51.51,0,0,1,347.37,418.81Zm498-7.13a.51.51,0,0,1-.5-.44l-.39-3a.5.5,0,0,1,.43-.56.49.49,0,0,1,.56.43c.13,1,.27,2,.4,3a.5.5,0,0,1-.43.56Zm-497.86-2.86h0a.51.51,0,0,1-.49-.52c0-1,.05-2,.07-3a.48.48,0,0,1,.51-.48.49.49,0,0,1,.49.51c0,1,0,2-.07,3A.51.51,0,0,1,347.52,408.82ZM844,401.77a.5.5,0,0,1-.49-.43c-.15-1-.3-2-.44-3a.5.5,0,0,1,.42-.57.52.52,0,0,1,.57.42c.14,1,.29,2,.44,3a.5.5,0,0,1-.43.56Zm-496.2-2.95h0a.5.5,0,0,1-.48-.52c0-1,.07-2,.12-3a.51.51,0,0,1,.52-.48.49.49,0,0,1,.47.52c0,1-.07,2-.11,3A.5.5,0,0,1,347.81,398.82Zm494.69-6.94a.51.51,0,0,1-.5-.42c-.16-1-.32-2-.48-3a.51.51,0,0,1,.41-.58.51.51,0,0,1,.58.41q.24,1.47.48,3a.5.5,0,0,1-.41.57Zm-494.25-3.06h0a.51.51,0,0,1-.48-.53c.06-1,.11-2,.17-3a.5.5,0,0,1,.53-.47.49.49,0,0,1,.47.53c-.06,1-.11,2-.17,3A.5.5,0,0,1,348.25,388.82ZM840.84,382a.51.51,0,0,1-.5-.41c-.17-1-.35-2-.52-3a.5.5,0,1,1,1-.17c.18,1,.35,1.95.53,2.95a.49.49,0,0,1-.41.58Zm-492-3.18h0a.5.5,0,0,1-.46-.54c.08-1,.15-2,.23-3a.5.5,0,0,1,.54-.46.5.5,0,0,1,.46.54c-.08,1-.16,2-.23,3A.5.5,0,0,1,348.88,378.83ZM839,372.17a.49.49,0,0,1-.49-.41c-.2-1-.38-2-.57-2.94a.5.5,0,0,1,.39-.59.49.49,0,0,1,.59.4c.19,1,.38,1.94.57,2.95a.5.5,0,0,1-.4.58Zm-489.31-3.31h-.05a.5.5,0,0,1-.45-.55c.1-1,.2-2,.31-3a.5.5,0,0,1,.55-.44.5.5,0,0,1,.44.55c-.1,1-.21,2-.3,3A.51.51,0,0,1,349.73,368.86Zm487.36-6.51a.5.5,0,0,1-.49-.39c-.21-1-.41-2-.61-2.94a.49.49,0,0,1,.38-.59.5.5,0,0,1,.6.38c.2.94.4,1.92.61,2.94a.49.49,0,0,1-.39.59Zm-486.23-3.42h-.07a.5.5,0,0,1-.43-.56c.13-1,.26-2,.4-3a.51.51,0,0,1,.57-.42.49.49,0,0,1,.42.56c-.13,1-.27,2-.4,3A.5.5,0,0,1,350.86,358.93Zm483-5.28h0l-3-.33a.5.5,0,0,1,.11-1l3,.34a.5.5,0,0,1-.06,1Zm-9.94-1h-.05l-3-.27a.5.5,0,1,1,.08-1l3,.27a.51.51,0,0,1,.46.54A.52.52,0,0,1,823.94,352.61Zm-10-.84h0l-3-.23a.49.49,0,0,1-.46-.53.5.5,0,0,1,.54-.46l3,.22a.5.5,0,0,1,0,1Zm-10-.71h0l-3-.19a.5.5,0,0,1,.06-1l3,.2a.5.5,0,0,1,0,1Zm-10-.6h0l-3-.17a.49.49,0,0,1-.47-.53.5.5,0,0,1,.53-.47l3,.17a.49.49,0,0,1,.47.53A.5.5,0,0,1,794,350.46Zm-10-.53h0l-3-.15a.5.5,0,0,1,0-1l3,.15a.5.5,0,0,1,.48.52A.51.51,0,0,1,784,349.93Zm-10-.47h0l-3-.13a.5.5,0,0,1-.48-.52.51.51,0,0,1,.52-.48l3,.13a.5.5,0,0,1,.48.52A.51.51,0,0,1,774,349.46Zm-10-.42h0l-3-.12a.5.5,0,1,1,0-1l3,.11a.5.5,0,0,1,.48.52A.51.51,0,0,1,764.05,349Zm-411.7,0h-.09a.51.51,0,0,1-.41-.58l.17-.94a1.76,1.76,0,0,1,1.73-1.49H354a.47.47,0,0,1,.51.49.51.51,0,0,1-.49.51h-.27a.78.78,0,0,0-.76.66l-.16.94A.5.5,0,0,1,352.35,349Zm401.7-.37h0l-3-.11a.5.5,0,1,1,0-1l3,.11a.5.5,0,0,1,0,1Zm-10-.34h0l-3-.09a.5.5,0,0,1,0-1l3,.09a.5.5,0,0,1,.49.52A.5.5,0,0,1,744.06,348.33Zm-10-.3h0l-3-.09a.49.49,0,0,1-.49-.51.5.5,0,0,1,.52-.49l3,.09a.5.5,0,0,1,.48.51A.51.51,0,0,1,734.06,348Zm-10-.27h0l-3-.08a.52.52,0,0,1-.49-.51.49.49,0,0,1,.52-.49l3,.08a.49.49,0,0,1,.48.51A.5.5,0,0,1,724.06,347.76Zm-10-.25h0l-3-.07a.5.5,0,0,1-.49-.51.47.47,0,0,1,.51-.49l3,.07a.52.52,0,0,1,.49.51A.51.51,0,0,1,714.07,347.51Zm-10-.22h0l-3-.07a.49.49,0,0,1-.49-.51.52.52,0,0,1,.51-.49l3,.07a.5.5,0,0,1,0,1Zm-10-.21h0l-3-.05a.52.52,0,0,1-.49-.51.48.48,0,0,1,.51-.49l3,.05a.5.5,0,0,1,0,1ZM361,346.93a.5.5,0,1,1,0-1l3,0a.51.51,0,0,1,.5.49.5.5,0,0,1-.49.51l-3,0Zm323.05,0h0l-3,0a.5.5,0,0,1,0-1h0l3,0a.5.5,0,0,1,0,1Zm-313-.09a.49.49,0,0,1-.5-.49.5.5,0,0,1,.49-.51l3,0a.48.48,0,0,1,.51.49.5.5,0,0,1-.5.51l-3,0Zm303-.07h0l-3-.05a.5.5,0,0,1-.5-.5.49.49,0,0,1,.51-.5l3,.05a.5.5,0,0,1,0,1Zm-293,0a.5.5,0,1,1,0-1l3,0a.5.5,0,0,1,0,1l-3,0Zm10-.1a.5.5,0,0,1,0-1l3,0a.5.5,0,1,1,0,1l-3,0Zm273,0h0l-3,0a.5.5,0,1,1,0-1h0l3,0a.5.5,0,0,1,0,1Zm-263-.09a.5.5,0,1,1,0-1l3,0a.5.5,0,0,1,0,1l-3,0Zm253,0h0l-3,0a.5.5,0,0,1-.5-.5.49.49,0,0,1,.51-.5l3,0a.5.5,0,0,1,0,1Zm-243,0a.5.5,0,1,1,0-1l3,0h0a.51.51,0,0,1,.5.5.5.5,0,0,1-.5.5l-3,0Zm233-.07h0l-3,0a.5.5,0,0,1-.5-.5.52.52,0,0,1,.51-.5l3,0a.5.5,0,0,1,0,1Zm-223,0a.5.5,0,0,1-.5-.5.49.49,0,0,1,.49-.5l3,0h0a.5.5,0,0,1,0,1l-3,0Zm10-.08a.5.5,0,1,1,0-1l3,0h0a.49.49,0,0,1,.5.49.51.51,0,0,1-.49.51l-3,0Zm203,0h0l-3,0a.5.5,0,0,1-.5-.5.51.51,0,0,1,.5-.5h0l3,0a.5.5,0,0,1,0,1Zm-193-.06a.51.51,0,0,1-.5-.5.5.5,0,0,1,.5-.5l3,0a.49.49,0,0,1,.51.49.52.52,0,0,1-.5.51l-3,0Zm183,0h0l-3,0a.5.5,0,1,1,0-1h0l3,0a.5.5,0,0,1,0,1Zm-173,0a.5.5,0,0,1,0-1l3,0h0a.5.5,0,0,1,0,1l-3,0Zm163,0h0l-3,0a.5.5,0,0,1-.5-.5.5.5,0,0,1,.51-.5l3,0a.5.5,0,0,1,.49.51A.49.49,0,0,1,614.07,346.07Zm-153,0a.5.5,0,0,1,0-1l3,0h0a.5.5,0,0,1,0,1l-3,0Zm143,0h0l-3,0a.51.51,0,0,1-.5-.5.52.52,0,0,1,.51-.5l3,0a.49.49,0,0,1,.49.5A.5.5,0,0,1,604.07,346Zm-133,0a.51.51,0,0,1-.5-.5.5.5,0,0,1,.5-.5l3,0h0a.5.5,0,0,1,.5.5.49.49,0,0,1-.49.5l-3,0Zm123-.05h-3a.5.5,0,0,1,0-1h3a.5.5,0,0,1,0,1Zm-113,0a.5.5,0,0,1,0-1h3a.5.5,0,0,1,.5.5.51.51,0,0,1-.5.5Zm10,0a.5.5,0,0,1-.5-.5.5.5,0,0,1,.5-.5h3a.5.5,0,1,1,0,1Zm93,0h-3a.51.51,0,0,1-.5-.51.5.5,0,0,1,.5-.49h3a.5.5,0,0,1,0,1Zm-83,0a.51.51,0,0,1-.5-.5.5.5,0,0,1,.5-.5h3a.5.5,0,0,1,.5.5.5.5,0,0,1-.5.5Zm73,0h-3a.5.5,0,0,1-.5-.5.51.51,0,0,1,.5-.5h3a.5.5,0,0,1,0,1Zm-63,0a.5.5,0,0,1-.5-.5.51.51,0,0,1,.5-.5h3a.49.49,0,0,1,.5.49.5.5,0,0,1-.49.51Zm53,0h-3a.5.5,0,0,1,0-1h3a.5.5,0,0,1,.5.5A.5.5,0,0,1,564.07,345.85Zm-43,0a.5.5,0,0,1-.5-.5.5.5,0,0,1,.5-.5h3a.5.5,0,0,1,0,1Zm33,0h-3a.51.51,0,0,1-.5-.5.5.5,0,0,1,.5-.5h3a.5.5,0,0,1,0,1Zm-23,0a.5.5,0,0,1-.5-.5.5.5,0,0,1,.5-.5h3a.5.5,0,0,1,.5.5.5.5,0,0,1-.5.5Zm13,0h-3a.5.5,0,0,1,0-1h3a.5.5,0,0,1,.5.5A.5.5,0,0,1,544.07,345.82Z" style="fill: #fff"/>
          <path d="M637,575.41H571.49a16.94,16.94,0,0,1-16.85-14.88l-7.57-63.08a16.91,16.91,0,0,1,16.84-18.88h78.75a16.92,16.92,0,0,1,16.9,18.37L653.94,560A16.94,16.94,0,0,1,637,575.41Z" style="fill: url(#linear-gradient-19)"/>
          <g style="mask: url(#mask-2)">
            <path d="M629,563.81h-49.9a12.9,12.9,0,0,1-12.82-11.32l-5.76-48a12.87,12.87,0,0,1,12.82-14.38h59.94a12.88,12.88,0,0,1,12.86,14l-4.28,48A12.89,12.89,0,0,1,629,563.81Z" style="opacity: 0.32;fill: url(#linear-gradient-20)"/>
          </g>
        </g>
        <g>
          <g>
            <path d="M612.58,550.32s-6.16-16.22-13.36-14.73-15.08,7-15.08,7l-11.56,15.64S605,571,616.46,563.7c0,0,33.16,5.73,75-1.14A164.08,164.08,0,0,1,679.7,527C658.49,539,635.64,548,612.58,550.32Z" style="fill: url(#linear-gradient-21)"/>
            <path d="M788.22,432.65S740.75,492.45,679.7,527a164.08,164.08,0,0,0,11.79,35.56c31.67-5.2,68.33-17.6,99.4-45.16Z" style="fill: url(#linear-gradient-22)"/>
          </g>
          <path d="M432.41,440.56l2.94,79.16a217.55,217.55,0,0,0,23.94,6.79c4.74-15.28,15.2-34,23.76-48C451.6,467.41,432.41,440.56,432.41,440.56Z" style="fill: url(#linear-gradient-23)"/>
          <path d="M589.42,439.21c-43.14,46.58-78.06,49.32-106.37,39.31-8.56,14-19,32.71-23.76,48C574.49,551.91,601.62,446,601.62,446Z" style="fill: url(#linear-gradient-24)"/>
          <path d="M598.17,434.27s5-5.34,14.17-3.66,17.38,4.87,23.11,0,7.74,1.66,7.74,1.66L626,445.32Z" style="fill: url(#linear-gradient-25)"/>
          <path d="M587.91,443.39s3.4-14.24,13.66-12.29,33.56,14.62,39.56,12.29,13.68-7.92,17.62-5.95l-6.94,8.63s17.84-10.29,20.91-4L643,458.8S599.63,454.45,587.91,443.39Z" style="fill: url(#linear-gradient-26)"/>
          <path d="M283.06,701.45S268.35,491.3,375.65,426c0,0,30-19.8,67.39,18.55s25.34,78.21-6,115.55-63.33,104.06-55.72,141.4Z" style="fill: url(#linear-gradient-27)"/>
          <path d="M429.73,368.71C429.71,371.22,394,422,394,422s6.42,12.63,37,22.89l26.43-54.34Z" style="fill: url(#linear-gradient-28)"/>
          <path d="M415.68,543s67.8,56.78,141,32a17.47,17.47,0,0,1,13.75,1l21.05,11.11a18.76,18.76,0,0,0,24.89-7c2.93-4.89,5.42-10.48,5.92-15.83l-41.18-16.67,3-5s-20.1-1.7-25.36,12.71c0,0-38.3,15.93-102.89-55.11C455.89,500.2,426.58,525.12,415.68,543Z" style="fill: url(#linear-gradient-29)"/>
          <path d="M412,542.72a1.46,1.46,0,0,1-.84-.26C382.57,523.12,369.1,491.9,369,491.59a1.49,1.49,0,0,1,.79-2,1.51,1.51,0,0,1,2,.79c.13.31,13.27,30.74,41.14,49.57a1.5,1.5,0,0,1-.84,2.74Z" style="fill: #eda150"/>
          <path d="M454.55,499.57a1.51,1.51,0,0,1-1.26-.68c-.09-.14-8.81-13.72-25.43-43.47-5.06-9.07-11.7-14.8-19.74-17.05-13.33-3.73-26.19,3.42-26.32,3.49a1.5,1.5,0,0,1-1.48-2.6c.57-.33,14-7.84,28.58-3.79,8.85,2.47,16.11,8.69,21.58,18.48,16.56,29.66,25.25,43.18,25.33,43.31a1.5,1.5,0,0,1-.45,2.08A1.49,1.49,0,0,1,454.55,499.57Z" style="fill: #eda150"/>
          <g>
            <path d="M457.87,339.63s12.71,29.21,13.57,44.54,4.15,25.27-13.57,28.36-32.66-5.74-40.75-21c0,0-12.67-23.53-9.83-33.17S457.87,339.63,457.87,339.63Z" style="fill: url(#linear-gradient-30)"/>
            <path d="M423.18,380.54l1-.45a2.44,2.44,0,0,0,1.19-3.34c-2.5-4.83-7.38-15.9-1.08-18.48,8.11-3.33,40.25-9.88,47.18-21.28,6.66-11,.76-25.11-8.11-29.13a1.23,1.23,0,0,0-1.6.52l-.74,1.4a1.2,1.2,0,0,1-2.22-.23h0a1.2,1.2,0,0,0-2.17-.31c-2.13,3.41-7.89,8.94-23.27,11.78-21.87,4-36.33,12.89-36.69,28a1.2,1.2,0,0,1-1.86,1c-1.62-1-4.2-1.44-7.66,1.46-6,5-3.54,18.15,9.62,28.93a1.19,1.19,0,0,1,0,1.92c-2.39,1.56-6,5.25,3.27,10.18,9.53,5.1,16.66,4.68,19.4,4.23a1.2,1.2,0,0,0,1-1.45L417.44,382a1.21,1.21,0,0,1,1.18-1.46Z" style="fill: url(#linear-gradient-31)"/>
            <path d="M423.73,383.34s-4.85-18.66-13.22-13.43,4.34,20.91,11.07,21.61Z" style="fill: url(#linear-gradient-32)"/>
          </g>
          <path d="M570.43,576s17.23,16.85,20.55,14.4a61.32,61.32,0,0,0,7.06-7.58,7.38,7.38,0,0,0,.51-8.71l-4.07-6.27A11.74,11.74,0,0,0,577,565.3,21.2,21.2,0,0,0,570.43,576Z" style="fill: url(#linear-gradient-33)"/>
          <path d="M843.91,701.45s-2.12-78.81-46.14-157A125.34,125.34,0,0,1,783.4,463.8l4.82-31.15s60.42-20.44,127.38-.86c0,0,92.86,73.64,30.8,269.66Z" style="fill: url(#linear-gradient-34)"/>
          <path d="M798.51,392.9l15.66,37.63a7.51,7.51,0,0,0,5.67,4.51c9,1.55,30.87,4,45.22-5.47a3.64,3.64,0,0,0,1-5.12L837.09,382.9Z" style="fill: url(#linear-gradient-35)"/>
          <g>
            <path d="M837.14,569.76a3.48,3.48,0,0,0-2.19,5l45.32,86.9a3.47,3.47,0,0,0,4,1.73l148.25-42.8a3.48,3.48,0,0,0,2.38-4.31l-25.54-88.4a3.47,3.47,0,0,0-4.23-2.4Z" style="fill: url(#linear-gradient-36)"/>
            <path d="M846.71,559.55a3.64,3.64,0,0,0-2.58,4.8l36.28,98.55a3.64,3.64,0,0,0,4.43,2.24l147.8-42.67a3.65,3.65,0,0,0,2.55-4.27l-20.49-94.85a3.64,3.64,0,0,0-4.4-2.77Z" style="fill: url(#linear-gradient-37)"/>
            <path d="M859.58,549.6a4.51,4.51,0,0,0-3.71,5.47l24.64,106.38a4.49,4.49,0,0,0,5.63,3.31l145.56-42a4.49,4.49,0,0,0,3.11-5.44l-22.38-86.84a4.52,4.52,0,0,0-5-3.33Z" style="fill: url(#linear-gradient-38)"/>
          </g>
          <path d="M977.41,590.17c11.29-85.34-54.47-151-54.47-151l-39.13,45.62c29.71,37,43.83,71,50.28,97.61C942.64,580,963.24,576,977.41,590.17Z" style="fill: url(#linear-gradient-39)"/>
          <path d="M934.09,583.44a1,1,0,0,1-1-.76c-8-33.06-24.86-65.77-50.09-97.22a1,1,0,0,1,1.56-1.26c25.42,31.69,42.4,64.66,50.47,98a1,1,0,0,1-.74,1.21A.85.85,0,0,1,934.09,583.44Z" style="fill: url(#linear-gradient-40)"/>
          <path d="M934.09,582.44c6,24.77,5.36,43.25,4.45,52.07a6.87,6.87,0,0,1-6.35,6.16c-3.79.27-9,.61-13.56.88-5.06.29-10.69-2.91-14.45-5.59a2.26,2.26,0,0,0-3.33,2.86c2.81,5.5,9.93,10.38,14.84,13.26a2.34,2.34,0,0,1-.54,4.28l-21,5.95c34.49,32.5,57.27-3.87,57.27-3.87,15.23-23.53,23.1-46.54,26-68.27C963.24,576,942.64,580,934.09,582.44Z" style="fill: url(#linear-gradient-41)"/>
          <g>
            <path d="M814.71,335.32c-.66.61-27.77,53.85-27.77,53.85L817.67,404l33.18-46.64S825.72,325,814.71,335.32Z" style="fill: url(#linear-gradient-42)"/>
            <path d="M836.89,363,821.57,388.5a5,5,0,0,1-.84,1.05c-1.83,1.7-8.07,6.64-12.89-.09-4.12-5.73-8-10.94-12.11-13.09a4.9,4.9,0,0,0-6.61,2.18,181.37,181.37,0,0,0-10.49,24.88,4.88,4.88,0,0,0,2.84,6c6.22,2.52,18.52,7.08,29.43,8.58a4.87,4.87,0,0,0,4.63-2c4.7-6.43,17.93-24.4,22.44-28.9,4.2-4.18,11.94-2.6,15.43-1.6a4.94,4.94,0,0,0,3.92-.51c3.54-2.13,9.71-7.44,4.06-16.43a4.91,4.91,0,0,1,1.52-6.67c4-2.6,8.24-7.48,4.16-15.38s-11.53-8.72-16.56-8.1a5.11,5.11,0,0,1-5.34-3,3.24,3.24,0,0,0-2.53-2,4.77,4.77,0,0,1-3.85-5.59c.89-4.53.22-10.41-7-14.38-13.25-7.29-24.87,4.59-27.82,14.61s11.87,17.11,21.2,18.29c6.84.87,10.6,8.35,12.11,12.26A4.9,4.9,0,0,1,836.89,363Z" style="fill: url(#linear-gradient-43)"/>
            <path d="M832.22,396.5s5.89-17.24,13.44-16.61,13.48,8.15,4.13,16.6C838.16,407,832.22,396.5,832.22,396.5Z" style="fill: url(#linear-gradient-44)"/>
          </g>
        </g>
        <g>
          <g>
            <path d="M315.44,468.23l-2.77,1.08h0a.92.92,0,0,1-.66-1.71h0l2.83-1.09a.91.91,0,0,1,.66,1.7Z" style="fill: #e992ec"/>
            <path d="M304.64,473.13l-2.58,1.46,0,0a.93.93,0,0,1-.91-1.62h0l2.64-1.49a.93.93,0,0,1,.91,1.62Z" style="fill: #e992ec"/>
            <path d="M294.62,479.49l-2.37,1.79,0,0a1,1,0,0,1-1.32-.18.94.94,0,0,1,.19-1.32h0l2.42-1.83a.94.94,0,0,1,1.13,1.5Z" style="fill: #e992ec"/>
            <path d="M285.5,487.09l-2.14,2.07,0,0a1,1,0,0,1-1.32-1.37h0l2.18-2.11a1,1,0,0,1,1.32,1.37Z" style="fill: #e992ec"/>
            <path d="M277.33,495.72l-1.88,2.3,0,0a1,1,0,1,1-1.49-1.22h0l1.92-2.34a1,1,0,1,1,1.49,1.23Z" style="fill: #e992ec"/>
            <path d="M270.16,505.21l-1.63,2.49v0a1,1,0,0,1-1.64-1.07h0l1.67-2.52a1,1,0,1,1,1.63,1.07Z" style="fill: #e992ec"/>
            <path d="M264,515.4,262.64,518v0a1,1,0,1,1-1.76-.92h0l1.4-2.68a1,1,0,0,1,1.33-.42,1,1,0,0,1,.42,1.34Z" style="fill: #e992ec"/>
            <path d="M258.91,526.14l-1.11,2.76v0a1,1,0,0,1-1.86-.75h0l1.14-2.8a1,1,0,0,1,1.85.75Z" style="fill: #e992ec"/>
            <path d="M254.87,537.33l-.84,2.86v0a1,1,0,1,1-1.94-.57h0l.86-2.9a1,1,0,0,1,1.25-.68,1,1,0,0,1,.69,1.25Z" style="fill: #e992ec"/>
            <path d="M251.93,548.86l-.56,2.92v0a1,1,0,1,1-2-.39h0l.57-3a1,1,0,0,1,2,.39Z" style="fill: #e992ec"/>
            <path d="M250.13,560.62l-.27,3v0a1,1,0,1,1-2.07-.19h0l.27-3a1,1,0,0,1,2.07.19Z" style="fill: #e992ec"/>
            <path d="M249.52,572.49l0,3v0a1.06,1.06,0,0,1-2.11,0h0l0-3a1,1,0,1,1,2.09,0Z" style="fill: #e992ec"/>
            <path d="M250.12,584.37l.34,3v0a1.07,1.07,0,0,1-2.12.24h0l-.33-3a1.06,1.06,0,1,1,2.11-.24Z" style="fill: #e992ec"/>
            <path d="M251.88,596.13l.61,2.91v0a1.08,1.08,0,0,1-2.11.44h0l-.62-3a1.07,1.07,0,0,1,2.1-.44Z" style="fill: #e992ec"/>
            <path d="M254.73,607.68l.88,2.84v0a1.09,1.09,0,0,1-2.09.64h0l-.88-2.9a1.08,1.08,0,1,1,2.07-.63Z" style="fill: #e992ec"/>
            <path d="M258.63,618.92l1.13,2.76v0a1.1,1.1,0,1,1-2,.83h0l-1.15-2.8a1.1,1.1,0,0,1,2-.83Z" style="fill: #e992ec"/>
            <path d="M263.51,629.78l1.36,2.64v0a1.11,1.11,0,1,1-2,1h0l-1.38-2.69a1.1,1.1,0,0,1,.48-1.49,1.12,1.12,0,0,1,1.5.48Z" style="fill: #e992ec"/>
            <path d="M269.32,640.16l1.59,2.51v0a1.13,1.13,0,1,1-1.9,1.21h0l-1.61-2.56a1.11,1.11,0,0,1,.35-1.55,1.13,1.13,0,0,1,1.55.35Z" style="fill: #e992ec"/>
            <path d="M276,650l1.8,2.36,0,0a1.15,1.15,0,0,1-.22,1.6,1.13,1.13,0,0,1-1.59-.22h0l-1.83-2.41a1.13,1.13,0,0,1,.21-1.59,1.15,1.15,0,0,1,1.6.22Z" style="fill: #e992ec"/>
            <path d="M283.53,659.21l2,2.2,0,0a1.15,1.15,0,0,1-1.71,1.55h0l-2-2.24a1.15,1.15,0,0,1,1.7-1.54Z" style="fill: #e992ec"/>
            <path d="M291.84,667.72l2.2,2,0,0a1.16,1.16,0,1,1-1.58,1.71h0l-2.23-2a1.17,1.17,0,0,1-.07-1.64,1.15,1.15,0,0,1,1.64-.07Z" style="fill: #e992ec"/>
            <path d="M300.89,675.44l2.37,1.79h0a1.18,1.18,0,1,1-1.42,1.88h0l-2.41-1.83a1.17,1.17,0,0,1-.23-1.64,1.18,1.18,0,0,1,1.65-.23Z" style="fill: #e992ec"/>
            <path d="M310.62,682.25l2.53,1.55,0,0a1.19,1.19,0,1,1-1.24,2h0l-2.58-1.59a1.18,1.18,0,1,1,1.24-2Z" style="fill: #e992ec"/>
            <path d="M321,688.06l2.67,1.29h0a1.2,1.2,0,0,1-1,2.17h0l-2.72-1.33a1.19,1.19,0,1,1,1-2.15Z" style="fill: #e992ec"/>
            <path d="M331.86,692.83l2.79,1h0a1.21,1.21,0,1,1-.84,2.28h0L331,695.09a1.21,1.21,0,0,1,.84-2.27Z" style="fill: #e992ec"/>
            <path d="M343.14,696.55l2.88.76h0a1.23,1.23,0,0,1-.63,2.37h0l-2.92-.79a1.21,1.21,0,0,1-.87-1.49,1.24,1.24,0,0,1,1.5-.87Z" style="fill: #e992ec"/>
            <path d="M354.73,699.2l2.93.5h0a1.23,1.23,0,0,1,1,1.42,1.25,1.25,0,0,1-1.43,1h0l-3-.52a1.23,1.23,0,0,1,.42-2.43Z" style="fill: #e992ec"/>
            <path d="M366.5,700.8l3,.24h0a1.25,1.25,0,0,1-.19,2.49h0l-3-.25a1.24,1.24,0,1,1,.2-2.48Z" style="fill: #e992ec"/>
            <path d="M378.38,701.36l3,0h0a1.26,1.26,0,0,1,0,2.52h0l-3,0a1.26,1.26,0,0,1,0-2.52Z" style="fill: #e992ec"/>
            <path d="M390.26,700.9l3-.26h0a1.27,1.27,0,0,1,.23,2.53h0l-3,.27a1.27,1.27,0,1,1-.23-2.52Z" style="fill: #e992ec"/>
            <path d="M402.06,699.47,405,699h0a1.27,1.27,0,0,1,.44,2.51h0l-3,.52a1.27,1.27,0,1,1-.43-2.51Z" style="fill: #e992ec"/>
            <path d="M413.71,697.07l2.88-.74h0a1.28,1.28,0,0,1,.64,2.47h0l-2.93.76a1.28,1.28,0,0,1-1.55-.92,1.26,1.26,0,0,1,.91-1.55Z" style="fill: #e992ec"/>
            <path d="M425.13,693.74l2.81-1h0a1.28,1.28,0,0,1,.84,2.42h0l-2.85,1a1.28,1.28,0,1,1-.84-2.42Z" style="fill: #e992ec"/>
            <path d="M436.25,689.51l2.72-1.19h0a1.28,1.28,0,0,1,1,2.34h0l-2.77,1.22a1.28,1.28,0,1,1-1-2.35Z" style="fill: #e992ec"/>
            <path d="M447,684.42l2.64-1.4h0a1.29,1.29,0,1,1,1.21,2.27h0l-2.67,1.41a1.28,1.28,0,1,1-1.2-2.26Z" style="fill: #e992ec"/>
            <path d="M457.38,678.57l2.53-1.57h0a1.28,1.28,0,1,1,1.35,2.18h0l-2.56,1.59a1.28,1.28,0,1,1-1.36-2.18Z" style="fill: #e992ec"/>
            <path d="M467.36,672.05l2.43-1.72h0a1.27,1.27,0,0,1,1.79.3,1.29,1.29,0,0,1-.3,1.8h0l-2.47,1.74a1.29,1.29,0,0,1-1.49-2.1Z" style="fill: #e992ec"/>
            <path d="M476.94,665l2.34-1.86h0a1.3,1.3,0,0,1,1.61,2h0L478.53,667a1.29,1.29,0,0,1-1.6-2Z" style="fill: #e992ec"/>
            <path d="M486.14,657.35l2.25-2h0a1.3,1.3,0,0,1,1.71,2h0l-2.27,2a1.3,1.3,0,1,1-1.71-1.95Z" style="fill: #e992ec"/>
            <path d="M495,649.33l2.17-2.06h0a1.3,1.3,0,0,1,1.84,0,1.32,1.32,0,0,1,0,1.84h0l-2.19,2.08a1.29,1.29,0,1,1-1.78-1.88Z" style="fill: #e992ec"/>
            <path d="M503.53,641l2.08-2.14h0a1.3,1.3,0,0,1,1.86,1.82h0l-2.1,2.15a1.3,1.3,0,0,1-1.86-1.81Z" style="fill: #e992ec"/>
            <path d="M511.78,632.31l2-2.2h0a1.3,1.3,0,1,1,1.92,1.76h0l-2,2.22a1.3,1.3,0,1,1-1.91-1.77Z" style="fill: #e992ec"/>
            <path d="M519.8,623.42l2-2.25h0a1.3,1.3,0,1,1,2,1.72h0l-2,2.26a1.3,1.3,0,0,1-2-1.72Z" style="fill: #e992ec"/>
            <path d="M527.63,614.37l1.94-2.29h0a1.31,1.31,0,0,1,2,1.69h0l-1.94,2.3a1.31,1.31,0,0,1-2-1.69Z" style="fill: #e992ec"/>
            <path d="M535.32,605.18l1.91-2.32a1.31,1.31,0,0,1,2,1.66h0l-1.91,2.31a1.31,1.31,0,1,1-2-1.66Z" style="fill: #e992ec"/>
            <path d="M542.91,595.9l1.89-2.33a1.31,1.31,0,1,1,2,1.65h0L545,597.55a1.31,1.31,0,0,1-2-1.65Z" style="fill: #e992ec"/>
            <path d="M550.45,586.56l1.88-2.33a1.32,1.32,0,1,1,2,1.65h0l-1.88,2.33a1.32,1.32,0,0,1-2-1.65Z" style="fill: #e992ec"/>
            <path d="M558,577.22l1.88-2.34a1.32,1.32,0,1,1,2,1.66h0L560,578.87a1.32,1.32,0,1,1-2-1.65Z" style="fill: #e992ec"/>
            <path d="M565.54,567.89l1.9-2.33a1.33,1.33,0,0,1,2,1.68h0l-1.9,2.32a1.32,1.32,0,1,1-2-1.67Z" style="fill: #e992ec"/>
            <path d="M573.18,558.62l1.93-2.31a1.32,1.32,0,0,1,2,1.7h0l-1.93,2.29a1.32,1.32,0,1,1-2-1.69Z" style="fill: #e992ec"/>
            <path d="M580.94,549.44l2-2.27a1.33,1.33,0,1,1,2,1.73h0l-2,2.26h0a1.33,1.33,0,0,1-2-1.74Z" style="fill: #e992ec"/>
            <path d="M588.87,540.4l2-2.23a1.33,1.33,0,1,1,2,1.78h0l-2,2.22h0a1.33,1.33,0,1,1-2-1.78Z" style="fill: #e992ec"/>
            <path d="M597,531.54l2.07-2.18a1.33,1.33,0,1,1,1.93,1.83h0L599,533.37h0a1.33,1.33,0,0,1-1.93-1.84Z" style="fill: #e992ec"/>
            <path d="M605.41,522.91l2.15-2.12a1.33,1.33,0,1,1,1.87,1.9h0l-2.13,2.1h0a1.34,1.34,0,1,1-1.88-1.9Z" style="fill: #e992ec"/>
            <path d="M614.1,514.56l2.23-2a1.34,1.34,0,1,1,1.81,2h0l-2.21,2h0a1.34,1.34,0,0,1-1.81-2Z" style="fill: #e992ec"/>
            <path d="M623.13,506.57l2.31-1.94a1.34,1.34,0,0,1,1.72,2.06h0l-2.29,1.91h0a1.34,1.34,0,1,1-1.72-2.05Z" style="fill: #e992ec"/>
            <path d="M632.52,499l2.41-1.82a1.34,1.34,0,0,1,1.62,2.14h0l0,0-2.38,1.79h0a1.34,1.34,0,1,1-1.62-2.14Z" style="fill: #e992ec"/>
            <path d="M642.31,491.92l2.51-1.68a1.35,1.35,0,0,1,1.49,2.24h0l-2.48,1.66h0a1.35,1.35,0,0,1-1.49-2.24Z" style="fill: #e992ec"/>
            <path d="M652.48,485.41l2.6-1.53a1.35,1.35,0,1,1,1.37,2.32h0l-2.57,1.52h0a1.35,1.35,0,1,1-1.37-2.33Z" style="fill: #e992ec"/>
            <path d="M663,479.49l2.68-1.39a1.36,1.36,0,0,1,1.25,2.41h0l-2.65,1.36h0a1.35,1.35,0,1,1-1.25-2.4Z" style="fill: #e992ec"/>
            <path d="M673.84,474.17l2.75-1.24a1.35,1.35,0,0,1,1.11,2.47h0L675,476.63h0a1.35,1.35,0,1,1-1.11-2.47Z" style="fill: #e992ec"/>
            <path d="M685,469.45l2.82-1.09a1.35,1.35,0,0,1,1.75.78,1.36,1.36,0,0,1-.78,1.76h0L685.94,472h0a1.36,1.36,0,1,1-1-2.53Z" style="fill: #e992ec"/>
            <path d="M696.31,465.35l2.87-.93A1.36,1.36,0,0,1,700,467h0l-2.84.91h0a1.36,1.36,0,0,1-.83-2.59Z" style="fill: #e992ec"/>
            <path d="M707.87,461.87l2.92-.77a1.36,1.36,0,0,1,.69,2.64h0l-2.89.76h0a1.36,1.36,0,0,1-.69-2.64Z" style="fill: #e992ec"/>
            <path d="M719.6,459l3-.61a1.37,1.37,0,0,1,.55,2.68h0l-2.92.61h0a1.37,1.37,0,0,1-.55-2.68Z" style="fill: #e992ec"/>
            <path d="M731.47,456.81l3-.45a1.37,1.37,0,1,1,.41,2.71h0l-2.94.45h0a1.37,1.37,0,0,1-.41-2.71Z" style="fill: #e992ec"/>
            <path d="M743.44,455.24l3-.29a1.37,1.37,0,0,1,.27,2.73h0l-3,.29h0a1.37,1.37,0,0,1-.26-2.73Z" style="fill: #e992ec"/>
            <path d="M755.47,454.31l3-.13a1.38,1.38,0,0,1,.12,2.75h0l-3,.13h0a1.38,1.38,0,0,1-.12-2.75Z" style="fill: #e992ec"/>
            <path d="M767.54,454l3,0a1.38,1.38,0,0,1,0,2.75h0l-3,0h0a1.38,1.38,0,1,1,0-2.75Z" style="fill: #e992ec"/>
            <path d="M779.61,454.39l3,.19a1.38,1.38,0,1,1-.17,2.75h0l-3-.19h0a1.38,1.38,0,1,1,.18-2.75Z" style="fill: #e992ec"/>
            <path d="M791.64,455.39l3,.35a1.38,1.38,0,1,1-.33,2.75h0l-3-.35h0a1.38,1.38,0,1,1,.32-2.75Z" style="fill: #e992ec"/>
            <path d="M803.6,457l3,.52a1.39,1.39,0,1,1-.47,2.73h0l-2.94-.5h0a1.39,1.39,0,0,1,.47-2.73Z" style="fill: #e992ec"/>
            <path d="M815.45,459.34l2.94.67a1.39,1.39,0,1,1-.62,2.71h0l-2.9-.67h0a1.39,1.39,0,0,1,.62-2.71Z" style="fill: #e992ec"/>
            <path d="M827.16,462.28l2.9.83a1.39,1.39,0,0,1-.77,2.68h0l-2.86-.82h0a1.39,1.39,0,0,1,.77-2.67Z" style="fill: #e992ec"/>
            <path d="M838.69,465.86l2.85,1a1.4,1.4,0,0,1-.92,2.64h0l-2.82-1h0a1.39,1.39,0,0,1,.92-2.63Z" style="fill: #e992ec"/>
            <path d="M850,470.07l2.79,1.16a1.4,1.4,0,1,1-1.07,2.58h0L849,472.66h0a1.4,1.4,0,0,1,1.07-2.59Z" style="fill: #e992ec"/>
            <path d="M861.07,474.92l2.72,1.31a1.4,1.4,0,1,1-1.21,2.52h0l-2.68-1.29h0a1.4,1.4,0,1,1,1.21-2.52Z" style="fill: #e992ec"/>
            <path d="M871.84,480.38l2.65,1.46a1.41,1.41,0,0,1-1.36,2.46h0l-2.61-1.44h0a1.4,1.4,0,0,1,1.35-2.46Z" style="fill: #e992ec"/>
            <path d="M882.29,486.45l2.55,1.61a1.41,1.41,0,0,1-1.5,2.38h0l-2.52-1.59h0a1.41,1.41,0,1,1,1.5-2.38Z" style="fill: #e992ec"/>
            <path d="M892.37,493.1l2.46,1.74a1.41,1.41,0,0,1-1.63,2.3h0l-2.44-1.73h0a1.41,1.41,0,1,1,1.63-2.3Z" style="fill: #e992ec"/>
            <path d="M902.1,500.2l2.4,1.81a1.42,1.42,0,0,1,.27,2,1.4,1.4,0,0,1-2,.27h0l-2.38-1.81h0a1.41,1.41,0,0,1,1.7-2.25Z" style="fill: #e992ec"/>
            <path d="M911.63,507.53l2.37,1.85a1.42,1.42,0,1,1-1.75,2.23h0l-2.36-1.85a1.41,1.41,0,0,1,1.74-2.23Z" style="fill: #e992ec"/>
            <path d="M921.07,514.94l2.36,1.85a1.42,1.42,0,0,1-1.74,2.24h0l-2.37-1.86a1.42,1.42,0,1,1,1.75-2.23Z" style="fill: #e992ec"/>
            <path d="M930.54,522.28l2.39,1.8h0a1.42,1.42,0,0,1-1.72,2.27h0l-2.4-1.81a1.42,1.42,0,1,1,1.72-2.26Z" style="fill: #e992ec"/>
            <path d="M940.16,529.38l2.44,1.72h0a1.42,1.42,0,1,1-1.64,2.32h0l-2.47-1.73a1.42,1.42,0,0,1,1.64-2.33Z" style="fill: #e992ec"/>
            <path d="M950,536.06l2.53,1.58h0a1.43,1.43,0,0,1-1.52,2.42h0l-2.56-1.61a1.42,1.42,0,1,1,1.51-2.41Z" style="fill: #e992ec"/>
            <path d="M960.29,542.1l2.62,1.38,0,0a1.43,1.43,0,1,1-1.33,2.53h0l-2.68-1.41a1.43,1.43,0,0,1,1.33-2.53Z" style="fill: #e992ec"/>
            <path d="M971,547.24l2.75,1.11,0,0a1.43,1.43,0,1,1-1.07,2.65h0l-2.82-1.14a1.43,1.43,0,1,1,1.08-2.65Z" style="fill: #e992ec"/>
            <path d="M982.12,551.18l2.85.75,0,0a1.43,1.43,0,0,1,1,1.75,1.45,1.45,0,0,1-1.76,1h0l-2.94-.79a1.43,1.43,0,1,1,.73-2.77Z" style="fill: #e992ec"/>
            <path d="M993.65,553.59l2.93.34h0a1.43,1.43,0,1,1-.33,2.85h0l-3-.35a1.43,1.43,0,1,1,.33-2.85Z" style="fill: #e992ec"/>
            <path d="M1005.39,554.23l2.94-.14h.06a1.44,1.44,0,0,1,1.51,1.36,1.46,1.46,0,0,1-1.37,1.51h0l-3.06.15a1.44,1.44,0,1,1-.14-2.87Z" style="fill: #e992ec"/>
            <path d="M1017.07,552.92l2.87-.62h.06a1.44,1.44,0,0,1,.61,2.82h0l-3,.64a1.44,1.44,0,0,1-.61-2.81Z" style="fill: #e992ec"/>
            <path d="M1028.41,549.78l2.75-1,0,0a1.44,1.44,0,0,1,1,2.7h0l-2.85,1.09a1.45,1.45,0,0,1-1.87-.84,1.44,1.44,0,0,1,.84-1.86Z" style="fill: #e992ec"/>
            <path d="M1039.19,545l2.58-1.42,0,0a1.45,1.45,0,1,1,1.4,2.54h0l-2.67,1.47a1.46,1.46,0,0,1-2-.58,1.44,1.44,0,0,1,.57-2Z" style="fill: #e992ec"/>
            <path d="M1049.25,538.83l2.39-1.74,0,0a1.45,1.45,0,1,1,1.7,2.34h0l-2.46,1.79a1.45,1.45,0,1,1-1.71-2.34Z" style="fill: #e992ec"/>
            <path d="M1058.5,531.46l2.17-2,0,0a1.45,1.45,0,1,1,2,2.14h0l-2.23,2.06a1.45,1.45,0,1,1-2-2.14Z" style="fill: #e992ec"/>
            <path d="M1066.86,523.09l1.94-2.24,0,0a1.46,1.46,0,0,1,2.2,1.92h0l-2,2.29a1.46,1.46,0,0,1-2.2-1.91Z" style="fill: #e992ec"/>
            <path d="M1074.27,513.85l1.69-2.42,0,0a1.46,1.46,0,1,1,2.4,1.68h0l-1.75,2.49a1.46,1.46,0,0,1-2.39-1.68Z" style="fill: #e992ec"/>
            <path d="M1080.67,503.89l1.43-2.59,0,0a1.46,1.46,0,0,1,2.56,1.41h0l-1.47,2.66a1.46,1.46,0,0,1-2.56-1.42Z" style="fill: #e992ec"/>
            <path d="M1086,493.32l1.16-2.73v0a1.47,1.47,0,0,1,2.7,1.15h0l-1.19,2.8a1.46,1.46,0,1,1-2.69-1.15Z" style="fill: #e992ec"/>
            <path d="M1090.19,482.24l.86-2.83v0a1.47,1.47,0,0,1,2.81.85h0l-.89,2.9a1.46,1.46,0,1,1-2.8-.85Z" style="fill: #e992ec"/>
            <path d="M1093.19,470.78l.59-2.91v0a1.47,1.47,0,0,1,2.89.58h0l-.6,3a1.47,1.47,0,0,1-2.88-.58Z" style="fill: #e992ec"/>
            <path d="M1095.12,459.08l.32-3v0a1.47,1.47,0,0,1,2.93.32h0l-.32,3a1.47,1.47,0,1,1-2.93-.31Z" style="fill: #e992ec"/>
            <path d="M1096,447.24l.07-3v0a1.48,1.48,0,0,1,3,.06h0l-.07,3a1.48,1.48,0,1,1-3-.07Z" style="fill: #e992ec"/>
            <path d="M1095.91,435.36l-.17-3v0a1.48,1.48,0,0,1,3-.18h0l.17,3a1.48,1.48,0,0,1-2.95.17Z" style="fill: #e992ec"/>
            <path d="M1094.87,423.53l-.4-2.95v0a1.48,1.48,0,1,1,2.94-.4h0l.41,3a1.48,1.48,0,0,1-2.94.4Z" style="fill: #e992ec"/>
            <path d="M1092.93,411.8l-.61-2.91v0a1.49,1.49,0,0,1,2.91-.62h0l.62,3a1.48,1.48,0,1,1-2.9.61Z" style="fill: #e992ec"/>
            <path d="M1090.16,400.23l-.82-2.86v0a1.49,1.49,0,0,1,2.86-.82h0l.83,2.91a1.48,1.48,0,0,1-2.85.82Z" style="fill: #e992ec"/>
            <path d="M1086.58,388.88l-1-2.79v0a1.49,1.49,0,0,1,2.8-1h0l1,2.84a1.49,1.49,0,0,1-2.8,1Z" style="fill: #e992ec"/>
            <path d="M1082.25,377.81l-1.2-2.73v0a1.49,1.49,0,1,1,2.73-1.2h0l1.22,2.77a1.49,1.49,0,0,1-2.73,1.2Z" style="fill: #e992ec"/>
            <path d="M1077.18,367l-1.38-2.64v0a1.49,1.49,0,1,1,2.65-1.38h0l1.4,2.68a1.49,1.49,0,1,1-2.65,1.38Z" style="fill: #e992ec"/>
            <path d="M1071.4,356.64l-1.55-2.54,0,0a1.5,1.5,0,1,1,2.56-1.56h0l1.58,2.58a1.5,1.5,0,0,1-2.56,1.56Z" style="fill: #e992ec"/>
            <path d="M1064.94,346.67l-1.74-2.41,0,0a1.49,1.49,0,0,1,2.42-1.74l1.78,2.45a1.5,1.5,0,1,1-2.42,1.76h0Z" style="fill: #e992ec"/>
            <path d="M1057.71,337.23,1055.8,335v0A1.47,1.47,0,1,1,1058,333l1.94,2.31a1.47,1.47,0,1,1-2.25,1.9h0Z" style="fill: #e992ec"/>
            <path d="M1049.88,328.24l-2-2.19h0a1.45,1.45,0,0,1,2.12-2l2.06,2.21a1.45,1.45,0,0,1-2.12,2h0Z" style="fill: #e992ec"/>
            <path d="M1041.63,319.61l-2.11-2.11h0a1.42,1.42,0,0,1,2-2l2.13,2.12a1.43,1.43,0,1,1-2,2h0Z" style="fill: #e992ec"/>
            <path d="M1033.07,311.26l-2.18-2h0a1.4,1.4,0,0,1,1.91-2l2.21,2.05a1.4,1.4,0,1,1-1.92,2h0Z" style="fill: #e992ec"/>
            <path d="M1024.26,303.17l-2.23-2h0a1.37,1.37,0,0,1,1.82-2.06l2.26,2a1.38,1.38,0,0,1-1.83,2.07h0Z" style="fill: #e992ec"/>
            <path d="M1015.24,295.31l-2.27-1.94h0a1.34,1.34,0,0,1,1.73-2.05l2.31,1.92a1.36,1.36,0,0,1-1.74,2.09h0Z" style="fill: #e992ec"/>
            <path d="M1006.07,287.62l-2.32-1.89h0a1.28,1.28,0,0,1,1.61-2l2.35,1.87a1.29,1.29,0,0,1-1.61,2h0Z" style="fill: #e992ec"/>
            <path d="M996.73,280.13l-2.37-1.84h0a1.21,1.21,0,0,1,1.48-1.92l2.39,1.82a1.23,1.23,0,0,1-1.49,2h0Z" style="fill: #e992ec"/>
            <path d="M987.22,272.85l-2.4-1.79h0a1.15,1.15,0,0,1,1.36-1.85L988.6,271a1.17,1.17,0,0,1,.26,1.63,1.16,1.16,0,0,1-1.62.25h0Z" style="fill: #e992ec"/>
            <path d="M977.56,265.78l-2.45-1.73h0a1.08,1.08,0,0,1,1.24-1.76l2.47,1.71a1.1,1.1,0,1,1-1.25,1.8h0Z" style="fill: #e992ec"/>
            <path d="M967.74,258.93l-2.48-1.68h0a1,1,0,0,1,1.09-1.65l2.52,1.65a1,1,0,1,1-1.1,1.69h0Z" style="fill: #e992ec"/>
            <path d="M957.75,252.32l-2.53-1.6h0a.88.88,0,0,1,.92-1.5l2.57,1.57a.91.91,0,0,1-.94,1.55h0Z" style="fill: #e992ec"/>
            <path d="M947.56,246.05l-2.59-1.5h0a.77.77,0,0,1-.28-1,.78.78,0,0,1,1.05-.29l2.62,1.47a.79.79,0,1,1-.77,1.39h0Z" style="fill: #e992ec"/>
            <path d="M937.11,240.21l-2.21-1.14h0a.64.64,0,0,1,.57-1.14l2.26,1.1a.67.67,0,0,1-.58,1.2h0Z" style="fill: #e992ec"/>
          </g>
          <g>
            <polygon points="928.47 214.82 924.44 231.53 914.86 221.61 928.47 214.82" style="fill: url(#linear-gradient-45)"/>
            <path d="M855.66,187.1l35.57,50.46a4.35,4.35,0,0,0,6.19.95l49.32-37.61a1.75,1.75,0,0,0-.86-3.12Z" style="fill: url(#linear-gradient-46)"/>
            <polygon points="928.46 214.82 855.66 187.1 920.52 220.91 919.6 225.59 928.46 214.82" style="fill: url(#linear-gradient-47)"/>
            <polygon points="915.79 224.49 924.44 231.53 920.52 220.91 915.79 224.49" style="fill: url(#linear-gradient-48)"/>
          </g>
        </g>
        <g>
          <path d="M978,227.71H813.49a6.36,6.36,0,0,1-6.36-6.36h0a6.37,6.37,0,0,1,6.36-6.37H978a6.37,6.37,0,0,1,6.37,6.37h0A6.37,6.37,0,0,1,978,227.71Z" style="fill: #fff;opacity: 0.2"/>
          <path d="M997.77,252.65H833.26a6.37,6.37,0,0,1-6.37-6.37h0a6.37,6.37,0,0,1,6.37-6.36H997.77a6.37,6.37,0,0,1,6.37,6.36h0A6.37,6.37,0,0,1,997.77,252.65Z" style="fill: #fff;opacity: 0.53"/>
          <path d="M951,302.52H833.26a6.37,6.37,0,0,1-6.37-6.37h0a6.37,6.37,0,0,1,6.37-6.36H951a6.37,6.37,0,0,1,6.37,6.36h0A6.37,6.37,0,0,1,951,302.52Z" style="fill: #fff;opacity: 0.53"/>
          <path d="M1016.22,277.58H851.71a6.37,6.37,0,0,1-6.37-6.36h0a6.37,6.37,0,0,1,6.37-6.37h164.51a6.37,6.37,0,0,1,6.37,6.37h0A6.37,6.37,0,0,1,1016.22,277.58Z" style="fill: #fff;opacity: 0.2"/>
        </g>
        <g>
          <path d="M341.17,565H176.66a6.37,6.37,0,0,1-6.37-6.37h0a6.37,6.37,0,0,1,6.37-6.36H341.17a6.37,6.37,0,0,1,6.37,6.36h0A6.37,6.37,0,0,1,341.17,565Z" style="fill: #fff;opacity: 0.2"/>
          <path d="M360.94,589.9H196.43a6.37,6.37,0,0,1-6.37-6.36h0a6.37,6.37,0,0,1,6.37-6.37H360.94a6.37,6.37,0,0,1,6.36,6.37h0A6.36,6.36,0,0,1,360.94,589.9Z" style="fill: #fff;opacity: 0.53"/>
          <path d="M314.16,639.78H196.43a6.37,6.37,0,0,1-6.37-6.37h0a6.37,6.37,0,0,1,6.37-6.37H314.16a6.37,6.37,0,0,1,6.36,6.37h0A6.37,6.37,0,0,1,314.16,639.78Z" style="fill: #fff;opacity: 0.53"/>
          <path d="M379.39,614.84H214.88a6.37,6.37,0,0,1-6.37-6.37h0a6.37,6.37,0,0,1,6.37-6.36H379.39a6.36,6.36,0,0,1,6.36,6.36h0A6.37,6.37,0,0,1,379.39,614.84Z" style="fill: #fff;opacity: 0.2"/>
        </g>
      </g>
      <rect width="1200" height="800" style="fill: none"/>
    </g>
  </g>
</svg>
