<svg width="166" height="60" viewBox="0 0 166 60" fill="none" xmlns="http://www.w3.org/2000/svg">
<path fill-rule="evenodd" clip-rule="evenodd" d="M71.0362 14.8502C71.0362 15.781 71.3446 16.5035 71.9605 17.0175C72.5761 17.5326 73.2307 17.7892 73.9242 17.7892C74.6169 17.7892 75.2655 17.5868 75.8715 17.1814C76.4763 16.7768 76.9657 16.5741 77.3398 16.5741C78.0002 16.5741 78.8032 17.1545 79.7487 18.3146C80.2552 18.95 80.5079 19.519 80.5079 20.0222C80.5079 20.8544 79.9027 21.6313 78.6926 22.3538C77.4388 23.2296 75.8986 23.6675 74.073 23.6675C72.0266 23.6675 70.0574 22.9342 68.1657 21.4673C67.2633 20.7666 66.526 19.8306 65.9542 18.659C65.382 17.4883 65.0963 16.1964 65.0963 14.7845C65.0963 13.3726 65.382 12.0917 65.9542 10.9424C66.526 9.79336 67.2633 8.86846 68.1657 8.16732C69.9909 6.72256 71.9383 6 74.0065 6C74.8422 6 75.6566 6.1152 76.4488 6.34485C77.2407 6.57487 77.8236 6.79936 78.1984 7.01831L78.726 7.34654C79.1219 7.60943 79.4299 7.8173 79.6503 7.97052C80.2221 8.40842 80.5079 8.90612 80.5079 9.46475C80.5079 10.023 80.2771 10.6522 79.8155 11.3526C79.0225 12.557 78.2641 13.1588 77.5379 13.1588C77.1197 13.1588 76.526 12.9184 75.7561 12.4366C75.3598 12.0644 74.7932 11.8783 74.0563 11.8783C73.3186 11.8783 72.6318 12.1409 71.9932 12.6663C71.355 13.1917 71.0362 13.9198 71.0362 14.8502Z" fill="white"/>
<path fill-rule="evenodd" clip-rule="evenodd" d="M94.4677 6.39455C94.8859 6.52562 95.2321 6.75084 95.5078 7.06763C95.7824 7.38553 95.9201 7.89432 95.9201 8.59472C95.9201 9.29513 95.7112 10.0616 95.2933 10.8935C94.8752 11.7253 94.2703 12.1411 93.4785 12.1411C93.0826 12.1411 92.7026 12.0539 92.3393 11.8789C91.9765 11.7036 91.4978 11.616 90.9037 11.616C90.31 11.616 89.7538 11.8243 89.2373 12.2397C88.72 12.6561 88.4618 13.159 88.4618 13.7501V20.6468C88.4618 21.1504 88.4451 21.5277 88.4124 21.7795C88.379 22.0317 88.2744 22.3212 88.0985 22.6494C87.7683 23.2188 86.9108 23.5034 85.5245 23.5034C84.4685 23.5034 83.7093 23.3177 83.2473 22.9452C82.8955 22.6391 82.6966 22.1683 82.6529 21.5333V20.5811V9.0544C82.6529 8.55116 82.6699 8.17345 82.7026 7.92164C82.736 7.6702 82.8295 7.39107 82.9831 7.08388C83.2911 6.49313 84.149 6.19738 85.5579 6.19738C86.8774 6.19738 87.703 6.44919 88.0325 6.95281C88.2744 7.3032 88.3954 7.66429 88.3954 8.0361C88.5059 7.88324 88.6644 7.69715 88.8744 7.47821C89.0829 7.25963 89.5286 6.96388 90.2106 6.59134C90.8922 6.21954 91.4919 6.03308 92.0091 6.03308C92.5264 6.03308 92.9605 6.06114 93.3134 6.11542C93.6648 6.17043 94.0499 6.2631 94.4677 6.39455Z" fill="white"/>
<path fill-rule="evenodd" clip-rule="evenodd" d="M102.026 14.8668C102.026 15.5889 102.311 16.2406 102.884 16.8203C103.455 17.4007 104.149 17.6902 104.963 17.6902C105.776 17.6902 106.453 17.3952 106.993 16.8037C107.532 16.2129 107.8 15.5616 107.8 14.8501C107.8 14.1387 107.542 13.4763 107.025 12.863C106.508 12.2508 105.815 11.9436 104.946 11.9436C104.077 11.9436 103.373 12.2508 102.834 12.863C102.295 13.4763 102.026 14.1442 102.026 14.8668ZM108.032 8.03582C108.164 6.81039 109.033 6.19711 110.639 6.19711C111.497 6.19711 112.135 6.26246 112.553 6.39428C112.971 6.52535 113.262 6.75537 113.428 7.08361C113.593 7.41221 113.692 7.70279 113.725 7.95386C113.758 8.20567 113.774 8.58338 113.774 9.08699V20.5808C113.774 21.084 113.758 21.4617 113.725 21.7132C113.692 21.9654 113.598 22.2552 113.444 22.5834C113.136 23.1531 112.383 23.4374 111.184 23.4374C109.984 23.4374 109.181 23.2894 108.774 22.9944C108.367 22.6986 108.131 22.2666 108.065 21.6969C107.25 22.8578 105.892 23.4374 103.989 23.4374C102.086 23.4374 100.32 22.5727 98.6924 20.8433C97.0638 19.1139 96.2501 17.105 96.2501 14.8173C96.2501 12.53 97.0697 10.5266 98.7087 8.80786C100.348 7.08952 102.146 6.2296 104.105 6.2296C104.853 6.2296 105.535 6.36142 106.151 6.62393C106.766 6.88681 107.196 7.13308 107.438 7.36311C107.679 7.59276 107.878 7.81725 108.032 8.03582Z" fill="white"/>
<path fill-rule="evenodd" clip-rule="evenodd" d="M125.093 17.7236H130.737C131.617 17.7236 132.25 17.8332 132.634 18.0518C133.019 18.2707 133.279 18.5886 133.41 19.0044C133.543 19.4205 133.608 19.9677 133.608 20.6463C133.608 21.3249 133.543 21.8725 133.41 22.2878C133.279 22.704 133.047 22.9942 132.717 23.1585C132.387 23.3224 132.095 23.421 131.842 23.4538C131.59 23.4863 131.21 23.5029 130.704 23.5029H118.79C118.02 23.5029 117.349 23.2186 116.777 22.6493C116.205 22.0807 115.919 21.4013 115.919 20.6134C115.919 19.8248 116.205 19.1521 116.777 18.5934C117.349 18.0355 118.229 17.231 119.417 16.1799C120.605 15.1294 121.683 14.1827 122.651 13.3398C123.62 12.4973 124.147 12.0317 124.236 11.9438H119.582C118.329 11.9438 117.536 11.7363 117.206 11.3198C116.831 10.8387 116.645 10.2033 116.645 9.41538C116.645 8.6271 116.7 8.04152 116.811 7.65864C116.92 7.27576 117.052 6.99072 117.206 6.80463C117.36 6.61892 117.58 6.47123 117.866 6.36157C118.24 6.25228 118.812 6.1969 119.582 6.1969H130.308C131.078 6.1969 131.749 6.47123 132.321 7.01841C132.893 7.5656 133.179 8.24976 133.179 9.07053C133.179 9.89131 132.849 10.6194 132.189 11.2545C131.529 11.8895 129.164 14.0454 125.093 17.7236Z" fill="white"/>
<path fill-rule="evenodd" clip-rule="evenodd" d="M143.476 23.4375C141.253 23.4375 139.411 22.5998 137.948 20.9254C136.485 19.2506 135.753 17.2095 135.753 14.8007V9.05421C135.753 8.52881 135.77 8.14593 135.802 7.9052C135.836 7.6641 135.929 7.3798 136.083 7.0512C136.391 6.46045 137.249 6.1647 138.658 6.1647C140.197 6.1647 141.1 6.58081 141.364 7.4123C141.495 7.76268 141.562 8.32094 141.562 9.08707V14.8336C141.562 15.7315 141.82 16.432 142.338 16.9356C142.854 17.4396 143.546 17.6906 144.417 17.6906C145.286 17.6906 145.989 17.4281 146.529 16.9027C147.067 16.3773 147.337 15.6876 147.337 14.8336V9.02135C147.337 8.51811 147.354 8.1404 147.387 7.88859C147.42 7.63715 147.524 7.34657 147.7 7.01834C147.986 6.449 148.833 6.1647 150.241 6.1647C151.627 6.1647 152.474 6.46045 152.782 7.0512C152.936 7.3798 153.03 7.67001 153.063 7.92145C153.096 8.17326 153.113 8.55097 153.113 9.05421V20.6791C153.113 21.0066 153.105 21.2809 153.09 21.5021C153.083 21.6062 153.113 26.656 153.063 27.3793C153.046 27.6326 152.926 27.9102 152.749 28.2163C152.419 28.786 151.572 29.0707 150.209 29.0707C148.866 29.0707 148.041 28.8074 147.733 28.282C147.556 27.9845 147.451 27.6374 147.416 27.2412C147.407 27.1423 147.403 21.4408 147.403 21.3359C147.315 21.4891 147.117 21.7081 146.809 21.9928C146.5 22.2774 146.204 22.5178 145.918 22.7153C145.169 23.1972 144.356 23.4375 143.476 23.4375Z" fill="white"/>
<path fill-rule="evenodd" clip-rule="evenodd" d="M70.7394 38.7986C70.7394 39.51 71.02 40.1503 71.5814 40.7196C72.142 41.2889 72.8233 41.5736 73.6274 41.5736C74.43 41.5736 75.0957 41.283 75.6233 40.703C76.1521 40.1233 76.4163 39.4883 76.4163 38.7986C76.4163 38.1089 76.1625 37.4635 75.6567 36.8609C75.1506 36.2591 74.4689 35.9578 73.6103 35.9578C72.7528 35.9578 72.0593 36.2532 71.5316 36.8443C71.004 37.4361 70.7394 38.0874 70.7394 38.7986ZM76.6137 45.5139C75.7773 46.6087 74.4463 47.1558 72.6207 47.1558C70.794 47.1558 69.0834 46.3184 67.4882 44.6437C65.893 42.9689 65.0964 41.0154 65.0964 38.7819C65.0964 36.5489 65.899 34.5902 67.5053 32.904C69.1109 31.2185 70.8712 30.3756 72.7855 30.3756C73.5331 30.3756 74.2151 30.5125 74.8315 30.7861C75.4474 31.0597 75.8715 31.3115 76.1023 31.5412C76.3331 31.7708 76.5142 31.9846 76.6471 32.1814C76.7131 31.5689 76.938 31.1033 77.3235 30.7861C77.7079 30.4686 78.3298 30.3098 79.1881 30.3098C80.0463 30.3098 80.673 30.3756 81.069 30.5066C81.4649 30.6381 81.7454 30.8629 81.9105 31.1797C82.0756 31.4976 82.1747 31.7764 82.2081 32.0171C82.2408 32.2586 82.2571 32.6304 82.2571 33.1336V46.729C82.2571 49.2464 81.3773 51.2774 79.617 52.8208C77.8571 54.3641 75.8764 55.1358 73.6764 55.1358C72.0047 55.1358 70.4092 54.7304 68.8916 53.9207C67.3732 53.1106 66.6144 52.377 66.6144 51.7205C66.6144 50.8669 66.9442 50.1118 67.6047 49.4546C68.0218 48.9945 68.3468 48.6774 68.578 48.5024C68.8088 48.327 69.0778 48.2395 69.3866 48.2395C69.6942 48.2395 70.0136 48.3709 70.3439 48.6335C71.3995 49.4432 72.5428 49.8486 73.7754 49.8486C74.6114 49.8486 75.2931 49.5203 75.8218 48.8638C76.3495 48.2066 76.6137 47.4187 76.6137 46.499V45.5139Z" fill="white"/>
<path fill-rule="evenodd" clip-rule="evenodd" d="M90.1779 39.0446C90.1779 39.7672 90.4636 40.4188 91.0365 40.9985C91.6079 41.5786 92.3011 41.8684 93.1155 41.8684C93.9293 41.8684 94.6061 41.5734 95.1448 40.9819C95.684 40.3908 95.9534 39.7398 95.9534 39.028C95.9534 38.3169 95.6944 37.6541 95.1782 37.0412C94.661 36.4287 93.9675 36.1219 93.0992 36.1219C92.2291 36.1219 91.5252 36.4287 90.9871 37.0412C90.4472 37.6541 90.1779 38.3224 90.1779 39.0446ZM96.1846 32.214C96.3163 30.9886 97.1857 30.3753 98.792 30.3753C99.6495 30.3753 100.288 30.4407 100.706 30.5721C101.124 30.7036 101.415 30.9332 101.58 31.2618C101.746 31.5904 101.844 31.8806 101.877 32.1317C101.911 32.3839 101.927 32.7616 101.927 33.2648V44.7586C101.927 45.2623 101.911 45.64 101.877 45.8914C101.844 46.1432 101.75 46.4334 101.597 46.7617C101.289 47.331 100.535 47.6157 99.336 47.6157C98.1367 47.6157 97.3341 47.4672 96.9267 47.1722C96.5196 46.8765 96.2836 46.4445 96.2172 45.8752C95.4035 47.0356 94.0447 47.6157 92.1415 47.6157C90.2383 47.6157 88.4728 46.7506 86.8446 45.0212C85.2161 43.2917 84.4031 41.2828 84.4031 38.9951C84.4031 36.7078 85.222 34.7048 86.8613 32.9857C88.5003 31.2677 90.2992 30.4078 92.2573 30.4078C93.005 30.4078 93.687 30.5393 94.3033 30.8018C94.9189 31.065 95.3482 31.3113 95.5905 31.541C95.8324 31.7706 96.0302 31.9955 96.1846 32.214Z" fill="white"/>
<path fill-rule="evenodd" clip-rule="evenodd" d="M110.243 32.6737C111.276 31.1197 112.52 30.3425 113.972 30.3425C116.216 30.3425 117.888 31.2947 118.989 33.1995C119.23 32.8709 119.521 32.5264 119.863 32.1649C120.204 31.8038 120.748 31.4091 121.497 30.9827C122.244 30.5559 123.015 30.3425 123.807 30.3425C125.567 30.3425 127.041 31.0156 128.229 32.3617C129.417 33.7083 130.011 35.9361 130.011 39.0446V44.7911C130.011 45.2955 129.994 45.6728 129.961 45.9243C129.929 46.1761 129.824 46.4659 129.648 46.7945C129.362 47.3856 128.515 47.681 127.107 47.681C125.72 47.681 124.874 47.3746 124.566 46.7617C124.412 46.4334 124.318 46.1428 124.285 45.8914C124.252 45.64 124.236 45.2622 124.236 44.7583V39.0114C124.236 37.1073 123.554 36.1547 122.189 36.1547C121.419 36.1547 120.897 36.4065 120.622 36.9101C120.346 37.4138 120.21 38.1249 120.21 39.0446V44.7911C120.21 45.3165 120.193 45.6998 120.16 45.9405C120.127 46.182 120.022 46.4659 119.846 46.7945C119.538 47.3856 118.679 47.681 117.272 47.681C115.886 47.681 115.039 47.3746 114.731 46.7617C114.577 46.4334 114.484 46.1428 114.451 45.8914C114.418 45.64 114.401 45.2622 114.401 44.7583V39.0114C114.401 37.1073 113.718 36.1547 112.355 36.1547C111.035 36.1547 110.374 37.1073 110.374 39.0114V44.824C110.374 45.328 110.359 45.7053 110.325 45.9571C110.292 46.2089 110.188 46.4988 110.012 46.827C109.682 47.3967 108.823 47.681 107.437 47.681C106.052 47.681 105.204 47.3856 104.897 46.7945C104.742 46.4659 104.649 46.182 104.616 45.9405C104.583 45.6998 104.566 45.3165 104.566 44.7911V33.232C104.566 32.7287 104.583 32.351 104.616 32.0988C104.649 31.8478 104.753 31.5686 104.929 31.2618C105.259 30.6707 106.04 30.375 107.272 30.375C108.504 30.375 109.307 30.5721 109.682 30.9661C110.055 31.3604 110.243 31.9297 110.243 32.6737Z" fill="white"/>
<path fill-rule="evenodd" clip-rule="evenodd" d="M151.693 46.1377C151.275 45.8752 151.067 45.4594 151.067 44.8897C151.067 44.3208 151.484 43.4561 152.32 42.2956C152.562 41.9234 152.953 41.7373 153.492 41.7373C154.031 41.7373 154.762 42.0058 155.686 42.5422C156.611 43.0787 157.446 43.3464 158.195 43.3464C159.537 43.3464 160.208 43.0839 160.208 42.5585C160.208 42.1427 159.47 41.8359 157.997 41.6388C156.611 41.4416 155.235 40.9276 153.872 40.0954C153.233 39.7011 152.705 39.0834 152.287 38.2401C151.869 37.3975 151.66 36.3958 151.66 35.2354C151.66 31.7765 154.047 30.0468 158.822 30.0468C160.384 30.0468 161.99 30.4193 163.64 31.1629C164.41 31.514 164.796 31.9516 164.796 32.477C164.796 33.0024 164.553 33.6485 164.069 34.4146C163.585 35.1807 163.09 35.5636 162.584 35.5636C162.32 35.5636 161.83 35.3993 161.116 35.0707C160.4 34.7429 159.624 34.5786 158.789 34.5786C157.49 34.5786 156.841 34.8197 156.841 35.3011C156.841 35.9576 157.59 36.3848 159.086 36.5816C160.538 36.7352 161.946 37.1513 163.31 37.8295C163.948 38.1363 164.482 38.6669 164.911 39.4223C165.34 40.177 165.554 41.1248 165.554 42.2631C165.554 43.4014 165.34 44.3699 164.911 45.1689C164.482 45.9686 163.882 46.5645 163.112 46.9588C161.703 47.6375 159.938 47.9768 157.816 47.9768C155.692 47.9768 153.651 47.3639 151.693 46.1377Z" fill="white"/>
<path fill-rule="evenodd" clip-rule="evenodd" d="M142.453 37.9279C143.289 37.9279 143.707 37.5779 143.707 36.8767C143.707 36.3739 143.514 35.9688 143.129 35.662C142.745 35.3556 142.195 35.2023 141.48 35.2023C140.764 35.2023 140.055 35.4925 139.352 36.0726C138.647 36.653 138.295 37.2714 138.295 37.9279H142.453ZM149.417 36.9591C149.417 38.3056 149.081 39.3025 148.41 39.9475C147.739 40.5937 146.996 40.9164 146.182 40.9164H138.361C138.361 41.5297 138.724 42.044 139.45 42.4597C140.176 42.8758 140.901 43.0837 141.628 43.0837C142.904 43.0837 143.905 42.9523 144.631 42.6894L144.995 42.5583C145.522 42.3176 145.962 42.1972 146.315 42.1972C147.018 42.1972 147.623 42.6894 148.13 43.6748C148.415 44.2659 148.559 44.7699 148.559 45.1853C148.559 47.1344 146.216 48.1077 141.529 48.1077C139.901 48.1077 138.455 47.8285 137.189 47.2706C135.924 46.7124 134.94 45.9732 134.235 45.0538C132.85 43.2805 132.157 41.2996 132.157 39.1102C132.157 36.3517 133.053 34.1467 134.846 32.493C136.639 30.8408 138.877 30.0137 141.562 30.0137C144.62 30.0137 146.864 31.087 148.294 33.2318C149.043 34.3705 149.417 35.6129 149.417 36.9591Z" fill="white"/>
<path d="M50.9463 15.54C51.0479 11.2136 50.7939 3.67436 48.0508 0.529108C46.548 -1.1938 42.9752 1.689 40.6639 3.91565C36.8329 2.04882 32.1256 1.13022 26.4023 1.13022C20.6791 1.13022 15.976 2.05305 12.1492 3.91565C9.82944 1.68477 6.26087 -1.19803 4.75809 0.524875C2.01923 3.66589 1.761 11.1798 1.8626 15.5103C0.62651 18.8969 0 22.8507 0 27.3675C0 36.8582 2.7177 43.8853 8.07267 48.2836C11.6793 51.2383 16.3909 52.9401 22.3935 53.4523C21.6908 53.8036 20.9627 54.1465 20.2134 54.5318L18.0376 55.5985L16.8015 56.2039C15.6035 56.8304 14.3674 57.3849 13.0382 58.2019L12.708 58.3755C12.6149 58.4432 12.526 58.5575 12.509 58.6845C12.4667 58.9258 12.6318 59.1544 12.8731 59.1883C14.0838 59.3703 15.2818 59.6073 16.5094 59.7132L17.4238 59.8148C17.7243 59.8486 18.0291 59.874 18.3381 59.891L20.1753 59.9926C22.6348 60.0349 25.1112 59.8994 27.5665 59.5142C30.0175 59.1459 32.4261 58.4601 34.7417 57.5077C37.0445 56.5552 39.25 55.3149 41.2439 53.8036C45.1976 50.7346 48.3048 46.603 50.1547 41.9973C50.832 40.3294 51.3357 38.5981 51.6998 36.8413C52.4321 34.022 52.8047 30.8641 52.8047 27.3675C52.8047 22.8676 52.1781 18.9223 50.9505 15.54H50.9463Z" fill="#6842FF"/>
<path d="M36.926 52.2839C33.8823 53.1729 30.39 53.6132 26.3981 53.6132H26.3896C26.0129 53.6132 25.6234 53.6089 25.234 53.5962C24.4339 53.5793 23.6592 53.5412 22.9015 53.4862C22.7279 53.4735 22.5544 53.4608 22.3893 53.4481C21.6866 53.7952 20.9585 54.1423 20.2092 54.5275L18.0333 55.5943C19.062 55.662 20.2769 55.7382 21.3564 55.7382C27.7527 55.7382 32.8791 54.5995 36.926 52.2839Z" fill="#492EB3"/>
<path d="M26.398 44.1182C36.5153 44.1182 43.2503 41.2735 43.2503 27.3675C43.2503 20.8018 41.7391 16.3697 38.6488 13.8213C36.0327 11.6709 32.0197 10.6168 26.398 10.6168C20.7764 10.6168 16.7633 11.6624 14.1472 13.8213C11.0485 16.3654 9.54573 20.8061 9.54573 27.3675C9.54573 41.2735 16.2807 44.1182 26.398 44.1182Z" fill="white"/>
<path d="M21.0221 23.8074C21.0221 22.5586 21.8518 21.5003 22.9905 21.1447C22.364 20.5648 21.5258 20.2092 20.603 20.2092C18.6684 20.2092 17.0852 21.7839 17.0852 23.7058V30.699C17.0852 32.6208 18.6684 34.1956 20.603 34.1956C22.5375 34.1956 24.1207 32.6251 24.1207 30.699V26.5843C24.0234 26.5928 23.926 26.6013 23.8287 26.6013C22.2751 26.6013 21.0178 25.3525 21.0178 23.8116L21.0221 23.8074Z" fill="#6842FF"/>
<path d="M32.4854 23.5534C32.4854 22.3469 33.2559 21.3225 34.3353 20.9331C33.7427 20.4801 33.0019 20.205 32.1976 20.205C30.263 20.205 28.6798 21.7797 28.6798 23.7016V30.6948C28.6798 32.6166 30.263 34.1914 32.1976 34.1914C34.1321 34.1914 35.7154 32.6209 35.7154 30.6948V26.3134C35.5799 26.3346 35.4402 26.3473 35.2963 26.3473C33.7427 26.3473 32.4854 25.0985 32.4854 23.5576V23.5534Z" fill="#6842FF"/>
</svg>
